<mxfile host="app.diagrams.net" modified="2023-01-10T14:24:04.976Z" agent="5.0 (Windows NT 10.0; Win64; x64) AppleWebKit/537.36 (KHTML, like Gecko) Chrome/108.0.0.0 Safari/537.36" etag="PgY09JP_-rJFn5_8EmXe" version="20.8.3" type="github" pages="2">
  <diagram id="cdCTITP5CdQpdFoHKUJa" name="Todo">
    <mxGraphModel dx="1580" dy="2597" grid="1" gridSize="10" guides="0" tooltips="1" connect="1" arrows="1" fold="1" page="1" pageScale="1" pageWidth="1169" pageHeight="827" math="0" shadow="0">
      <root>
        <mxCell id="0" />
        <mxCell id="1" parent="0" />
        <mxCell id="N14Uofo8YwiH1Fd8wAve-16" style="edgeStyle=orthogonalEdgeStyle;rounded=0;orthogonalLoop=1;jettySize=auto;html=1;exitX=1;exitY=0.75;exitDx=0;exitDy=0;entryX=0;entryY=0.5;entryDx=0;entryDy=0;fillColor=#d5e8d4;strokeColor=#82b366;movable=1;resizable=1;rotatable=1;deletable=1;editable=1;connectable=1;" parent="1" source="W9X_AGISyNTUNxRQ-_Xt-124" target="N14Uofo8YwiH1Fd8wAve-31" edge="1">
          <mxGeometry relative="1" as="geometry">
            <mxPoint x="637.5" y="300" as="targetPoint" />
            <Array as="points">
              <mxPoint x="679" y="380" />
              <mxPoint x="780" y="380" />
              <mxPoint x="780" y="260" />
            </Array>
            <mxPoint x="817.5" y="290" as="sourcePoint" />
          </mxGeometry>
        </mxCell>
        <mxCell id="N14Uofo8YwiH1Fd8wAve-95" style="edgeStyle=orthogonalEdgeStyle;rounded=0;orthogonalLoop=1;jettySize=auto;html=1;entryX=0;entryY=0.5;entryDx=0;entryDy=0;fillColor=#f8cecc;strokeColor=#b85450;exitX=1.004;exitY=0.12;exitDx=0;exitDy=0;exitPerimeter=0;movable=1;resizable=1;rotatable=1;deletable=1;editable=1;connectable=1;" parent="1" source="W9X_AGISyNTUNxRQ-_Xt-124" target="N14Uofo8YwiH1Fd8wAve-94" edge="1">
          <mxGeometry relative="1" as="geometry">
            <mxPoint x="987.5" y="390" as="targetPoint" />
            <Array as="points">
              <mxPoint x="740" y="288" />
              <mxPoint x="740" y="160" />
            </Array>
            <mxPoint x="853" y="460" as="sourcePoint" />
          </mxGeometry>
        </mxCell>
        <mxCell id="N14Uofo8YwiH1Fd8wAve-60" style="edgeStyle=orthogonalEdgeStyle;rounded=0;orthogonalLoop=1;jettySize=auto;html=1;exitX=0.5;exitY=1;exitDx=0;exitDy=0;entryX=0;entryY=0.5;entryDx=0;entryDy=0;fillColor=#d5e8d4;strokeColor=#82b366;movable=1;resizable=1;rotatable=1;deletable=1;editable=1;connectable=1;" parent="1" source="N14Uofo8YwiH1Fd8wAve-73" target="N14Uofo8YwiH1Fd8wAve-55" edge="1">
          <mxGeometry relative="1" as="geometry" />
        </mxCell>
        <mxCell id="N14Uofo8YwiH1Fd8wAve-75" style="edgeStyle=orthogonalEdgeStyle;rounded=0;orthogonalLoop=1;jettySize=auto;html=1;entryX=1;entryY=0.5;entryDx=0;entryDy=0;fillColor=#d5e8d4;strokeColor=#82b366;exitX=0.467;exitY=1;exitDx=0;exitDy=0;exitPerimeter=0;movable=1;resizable=1;rotatable=1;deletable=1;editable=1;connectable=1;" parent="1" source="N14Uofo8YwiH1Fd8wAve-28" target="N14Uofo8YwiH1Fd8wAve-73" edge="1">
          <mxGeometry relative="1" as="geometry">
            <mxPoint x="1070.75" y="460" as="sourcePoint" />
          </mxGeometry>
        </mxCell>
        <mxCell id="N14Uofo8YwiH1Fd8wAve-27" value="&lt;div&gt;Company&lt;/div&gt;" style="swimlane;fontStyle=0;childLayout=stackLayout;horizontal=1;startSize=30;horizontalStack=0;resizeParent=1;resizeParentMax=0;resizeLast=0;collapsible=1;marginBottom=0;whiteSpace=wrap;html=1;fillColor=#d5e8d4;strokeColor=#82b366;movable=1;resizable=1;rotatable=1;deletable=1;editable=1;connectable=1;" parent="1" vertex="1">
          <mxGeometry x="904.5" y="330" width="115" height="60" as="geometry" />
        </mxCell>
        <mxCell id="N14Uofo8YwiH1Fd8wAve-28" value="NIF/CIF" style="text;strokeColor=#82b366;fillColor=#d5e8d4;align=left;verticalAlign=middle;spacingLeft=4;spacingRight=4;overflow=hidden;points=[[0,0.5],[1,0.5]];portConstraint=eastwest;rotatable=1;whiteSpace=wrap;html=1;movable=1;resizable=1;deletable=1;editable=1;connectable=1;" parent="N14Uofo8YwiH1Fd8wAve-27" vertex="1">
          <mxGeometry y="30" width="115" height="30" as="geometry" />
        </mxCell>
        <mxCell id="N14Uofo8YwiH1Fd8wAve-74" style="edgeStyle=orthogonalEdgeStyle;rounded=0;orthogonalLoop=1;jettySize=auto;html=1;exitX=0.5;exitY=1;exitDx=0;exitDy=0;entryX=0.5;entryY=0;entryDx=0;entryDy=0;fillColor=#d5e8d4;strokeColor=#82b366;movable=1;resizable=1;rotatable=1;deletable=1;editable=1;connectable=1;" parent="1" source="N14Uofo8YwiH1Fd8wAve-31" target="N14Uofo8YwiH1Fd8wAve-73" edge="1">
          <mxGeometry relative="1" as="geometry" />
        </mxCell>
        <mxCell id="N14Uofo8YwiH1Fd8wAve-31" value="Company_id ?" style="rhombus;whiteSpace=wrap;html=1;fillColor=#d5e8d4;strokeColor=#82b366;movable=1;resizable=1;rotatable=1;deletable=1;editable=1;connectable=1;" parent="1" vertex="1">
          <mxGeometry x="820" y="210" width="100" height="100" as="geometry" />
        </mxCell>
        <mxCell id="W9X_AGISyNTUNxRQ-_Xt-161" value="" style="edgeStyle=orthogonalEdgeStyle;rounded=0;orthogonalLoop=1;jettySize=auto;html=1;strokeColor=#82b366;entryX=0.5;entryY=0;entryDx=0;entryDy=0;fillColor=#d5e8d4;movable=1;resizable=1;rotatable=1;deletable=1;editable=1;connectable=1;" parent="1" source="N14Uofo8YwiH1Fd8wAve-48" target="N14Uofo8YwiH1Fd8wAve-27" edge="1">
          <mxGeometry relative="1" as="geometry" />
        </mxCell>
        <mxCell id="N14Uofo8YwiH1Fd8wAve-48" value="yes" style="text;html=1;align=center;verticalAlign=middle;resizable=1;points=[];autosize=1;movable=1;rotatable=1;deletable=1;editable=1;connectable=1;" parent="1" vertex="1">
          <mxGeometry x="942" y="245" width="40" height="30" as="geometry" />
        </mxCell>
        <mxCell id="N14Uofo8YwiH1Fd8wAve-53" value="" style="edgeStyle=orthogonalEdgeStyle;rounded=0;orthogonalLoop=1;jettySize=auto;html=1;exitX=1;exitY=0.5;exitDx=0;exitDy=0;endArrow=none;fillColor=#d5e8d4;strokeColor=#82b366;entryX=-0.019;entryY=0.5;entryDx=0;entryDy=0;entryPerimeter=0;movable=1;resizable=1;rotatable=1;deletable=1;editable=1;connectable=1;" parent="1" source="N14Uofo8YwiH1Fd8wAve-31" target="N14Uofo8YwiH1Fd8wAve-48" edge="1">
          <mxGeometry relative="1" as="geometry">
            <mxPoint x="865.75" y="340" as="sourcePoint" />
            <mxPoint x="865.865" y="260.30000000000007" as="targetPoint" />
            <Array as="points">
              <mxPoint x="930.75" y="260" />
              <mxPoint x="930.75" y="260" />
            </Array>
          </mxGeometry>
        </mxCell>
        <mxCell id="N14Uofo8YwiH1Fd8wAve-54" value="Addresses" style="swimlane;fontStyle=0;childLayout=stackLayout;horizontal=1;startSize=30;horizontalStack=0;resizeParent=1;resizeParentMax=0;resizeLast=0;collapsible=1;marginBottom=0;whiteSpace=wrap;html=1;fillColor=#d5e8d4;strokeColor=#82b366;movable=1;resizable=1;rotatable=1;deletable=1;editable=1;connectable=1;" parent="1" vertex="1">
          <mxGeometry x="942" y="500" width="115" height="90" as="geometry" />
        </mxCell>
        <mxCell id="N14Uofo8YwiH1Fd8wAve-55" value="tax_residence" style="text;strokeColor=#82b366;fillColor=#d5e8d4;align=left;verticalAlign=middle;spacingLeft=4;spacingRight=4;overflow=hidden;points=[[0,0.5],[1,0.5]];portConstraint=eastwest;rotatable=1;whiteSpace=wrap;html=1;movable=1;resizable=1;deletable=1;editable=1;connectable=1;" parent="N14Uofo8YwiH1Fd8wAve-54" vertex="1">
          <mxGeometry y="30" width="115" height="30" as="geometry" />
        </mxCell>
        <mxCell id="N14Uofo8YwiH1Fd8wAve-56" value="shipping_address" style="text;strokeColor=#82b366;fillColor=#d5e8d4;align=left;verticalAlign=middle;spacingLeft=4;spacingRight=4;overflow=hidden;points=[[0,0.5],[1,0.5]];portConstraint=eastwest;rotatable=1;whiteSpace=wrap;html=1;movable=1;resizable=1;deletable=1;editable=1;connectable=1;" parent="N14Uofo8YwiH1Fd8wAve-54" vertex="1">
          <mxGeometry y="60" width="115" height="30" as="geometry" />
        </mxCell>
        <mxCell id="N14Uofo8YwiH1Fd8wAve-73" value="&lt;div&gt;Customer Account&lt;br&gt;&lt;/div&gt;" style="rounded=0;whiteSpace=wrap;html=1;fillColor=#d5e8d4;strokeColor=#82b366;movable=1;resizable=1;rotatable=1;deletable=1;editable=1;connectable=1;" parent="1" vertex="1">
          <mxGeometry x="825" y="445" width="90" height="40" as="geometry" />
        </mxCell>
        <mxCell id="N14Uofo8YwiH1Fd8wAve-94" value="Shop_fiscal_data" style="rounded=0;whiteSpace=wrap;html=1;fillColor=#f8cecc;strokeColor=#b85450;movable=1;resizable=1;rotatable=1;deletable=1;editable=1;connectable=1;" parent="1" vertex="1">
          <mxGeometry x="780" y="140" width="132.5" height="40" as="geometry" />
        </mxCell>
        <mxCell id="W9X_AGISyNTUNxRQ-_Xt-62" style="edgeStyle=orthogonalEdgeStyle;rounded=0;orthogonalLoop=1;jettySize=auto;html=1;exitX=0;exitY=0.5;exitDx=0;exitDy=0;entryX=1;entryY=0.25;entryDx=0;entryDy=0;strokeColor=#EA6B66;" parent="1" source="W9X_AGISyNTUNxRQ-_Xt-59" target="W9X_AGISyNTUNxRQ-_Xt-87" edge="1">
          <mxGeometry relative="1" as="geometry">
            <mxPoint x="156.25" y="985" as="targetPoint" />
          </mxGeometry>
        </mxCell>
        <mxCell id="W9X_AGISyNTUNxRQ-_Xt-86" style="edgeStyle=orthogonalEdgeStyle;rounded=0;orthogonalLoop=1;jettySize=auto;html=1;exitX=0.5;exitY=1;exitDx=0;exitDy=0;entryX=0.5;entryY=0;entryDx=0;entryDy=0;strokeColor=#A680B8;" parent="1" source="W9X_AGISyNTUNxRQ-_Xt-87" target="W9X_AGISyNTUNxRQ-_Xt-74" edge="1">
          <mxGeometry relative="1" as="geometry" />
        </mxCell>
        <mxCell id="W9X_AGISyNTUNxRQ-_Xt-99" value="" style="edgeStyle=orthogonalEdgeStyle;rounded=0;orthogonalLoop=1;jettySize=auto;html=1;strokeColor=#67AB9F;entryX=0.5;entryY=1;entryDx=0;entryDy=0;" parent="1" source="W9X_AGISyNTUNxRQ-_Xt-59" target="W9X_AGISyNTUNxRQ-_Xt-93" edge="1">
          <mxGeometry relative="1" as="geometry" />
        </mxCell>
        <mxCell id="W9X_AGISyNTUNxRQ-_Xt-59" value="sales_invoice_line" style="swimlane;fontStyle=0;childLayout=stackLayout;horizontal=1;startSize=30;horizontalStack=0;resizeParent=1;resizeParentMax=0;resizeLast=0;collapsible=1;marginBottom=0;whiteSpace=wrap;html=1;fillColor=#ffe6cc;strokeColor=#d79b00;" parent="1" vertex="1">
          <mxGeometry x="264.75" y="1050" width="137.5" height="180" as="geometry" />
        </mxCell>
        <mxCell id="W9X_AGISyNTUNxRQ-_Xt-60" value="sales_invoice_id" style="text;strokeColor=#d79b00;fillColor=#ffe6cc;align=left;verticalAlign=middle;spacingLeft=4;spacingRight=4;overflow=hidden;points=[[0,0.5],[1,0.5]];portConstraint=eastwest;rotatable=0;whiteSpace=wrap;html=1;" parent="W9X_AGISyNTUNxRQ-_Xt-59" vertex="1">
          <mxGeometry y="30" width="137.5" height="30" as="geometry" />
        </mxCell>
        <mxCell id="W9X_AGISyNTUNxRQ-_Xt-61" value="shop_variation_id" style="text;strokeColor=#d79b00;fillColor=#ffe6cc;align=left;verticalAlign=middle;spacingLeft=4;spacingRight=4;overflow=hidden;points=[[0,0.5],[1,0.5]];portConstraint=eastwest;rotatable=0;whiteSpace=wrap;html=1;" parent="W9X_AGISyNTUNxRQ-_Xt-59" vertex="1">
          <mxGeometry y="60" width="137.5" height="30" as="geometry" />
        </mxCell>
        <mxCell id="W9X_AGISyNTUNxRQ-_Xt-85" value="sales_dicount_code_id" style="text;strokeColor=#d79b00;fillColor=#ffe6cc;align=left;verticalAlign=middle;spacingLeft=4;spacingRight=4;overflow=hidden;points=[[0,0.5],[1,0.5]];portConstraint=eastwest;rotatable=0;whiteSpace=wrap;html=1;" parent="W9X_AGISyNTUNxRQ-_Xt-59" vertex="1">
          <mxGeometry y="90" width="137.5" height="30" as="geometry" />
        </mxCell>
        <mxCell id="W9X_AGISyNTUNxRQ-_Xt-92" value="quantity" style="text;strokeColor=#d79b00;fillColor=#ffe6cc;align=left;verticalAlign=middle;spacingLeft=4;spacingRight=4;overflow=hidden;points=[[0,0.5],[1,0.5]];portConstraint=eastwest;rotatable=0;whiteSpace=wrap;html=1;" parent="W9X_AGISyNTUNxRQ-_Xt-59" vertex="1">
          <mxGeometry y="120" width="137.5" height="30" as="geometry" />
        </mxCell>
        <mxCell id="W9X_AGISyNTUNxRQ-_Xt-91" value="total" style="text;strokeColor=#d79b00;fillColor=#ffe6cc;align=left;verticalAlign=middle;spacingLeft=4;spacingRight=4;overflow=hidden;points=[[0,0.5],[1,0.5]];portConstraint=eastwest;rotatable=0;whiteSpace=wrap;html=1;" parent="W9X_AGISyNTUNxRQ-_Xt-59" vertex="1">
          <mxGeometry y="150" width="137.5" height="30" as="geometry" />
        </mxCell>
        <mxCell id="W9X_AGISyNTUNxRQ-_Xt-64" style="edgeStyle=orthogonalEdgeStyle;rounded=0;orthogonalLoop=1;jettySize=auto;html=1;exitX=1;exitY=0.5;exitDx=0;exitDy=0;strokeColor=#10739E;entryX=0;entryY=0.052;entryDx=0;entryDy=0;entryPerimeter=0;" parent="1" source="W9X_AGISyNTUNxRQ-_Xt-61" target="W9X_AGISyNTUNxRQ-_Xt-65" edge="1">
          <mxGeometry relative="1" as="geometry">
            <mxPoint x="366.25" y="1115" as="targetPoint" />
          </mxGeometry>
        </mxCell>
        <mxCell id="W9X_AGISyNTUNxRQ-_Xt-65" value="shop_variation" style="swimlane;fontStyle=0;childLayout=stackLayout;horizontal=1;startSize=30;horizontalStack=0;resizeParent=1;resizeParentMax=0;resizeLast=0;collapsible=1;marginBottom=0;whiteSpace=wrap;html=1;fillColor=#b1ddf0;strokeColor=#10739e;" parent="1" vertex="1">
          <mxGeometry x="486.25" y="910" width="150" height="270" as="geometry" />
        </mxCell>
        <mxCell id="W9X_AGISyNTUNxRQ-_Xt-66" value="variation_ref" style="text;strokeColor=#10739e;fillColor=#b1ddf0;align=left;verticalAlign=middle;spacingLeft=4;spacingRight=4;overflow=hidden;points=[[0,0.5],[1,0.5]];portConstraint=eastwest;rotatable=0;whiteSpace=wrap;html=1;" parent="W9X_AGISyNTUNxRQ-_Xt-65" vertex="1">
          <mxGeometry y="30" width="150" height="30" as="geometry" />
        </mxCell>
        <mxCell id="W9X_AGISyNTUNxRQ-_Xt-67" value="variation_ref_cat" style="text;strokeColor=#10739e;fillColor=#b1ddf0;align=left;verticalAlign=middle;spacingLeft=4;spacingRight=4;overflow=hidden;points=[[0,0.5],[1,0.5]];portConstraint=eastwest;rotatable=0;whiteSpace=wrap;html=1;" parent="W9X_AGISyNTUNxRQ-_Xt-65" vertex="1">
          <mxGeometry y="60" width="150" height="30" as="geometry" />
        </mxCell>
        <mxCell id="W9X_AGISyNTUNxRQ-_Xt-68" value="variation_name" style="text;strokeColor=#10739e;fillColor=#b1ddf0;align=left;verticalAlign=middle;spacingLeft=4;spacingRight=4;overflow=hidden;points=[[0,0.5],[1,0.5]];portConstraint=eastwest;rotatable=0;whiteSpace=wrap;html=1;" parent="W9X_AGISyNTUNxRQ-_Xt-65" vertex="1">
          <mxGeometry y="90" width="150" height="30" as="geometry" />
        </mxCell>
        <mxCell id="W9X_AGISyNTUNxRQ-_Xt-69" value="variation_price" style="text;strokeColor=#10739e;fillColor=#b1ddf0;align=left;verticalAlign=middle;spacingLeft=4;spacingRight=4;overflow=hidden;points=[[0,0.5],[1,0.5]];portConstraint=eastwest;rotatable=0;whiteSpace=wrap;html=1;" parent="W9X_AGISyNTUNxRQ-_Xt-65" vertex="1">
          <mxGeometry y="120" width="150" height="30" as="geometry" />
        </mxCell>
        <mxCell id="W9X_AGISyNTUNxRQ-_Xt-70" value="variation_discount" style="text;strokeColor=#10739e;fillColor=#b1ddf0;align=left;verticalAlign=middle;spacingLeft=4;spacingRight=4;overflow=hidden;points=[[0,0.5],[1,0.5]];portConstraint=eastwest;rotatable=0;whiteSpace=wrap;html=1;" parent="W9X_AGISyNTUNxRQ-_Xt-65" vertex="1">
          <mxGeometry y="150" width="150" height="30" as="geometry" />
        </mxCell>
        <mxCell id="W9X_AGISyNTUNxRQ-_Xt-71" value="variation_discount_type" style="text;strokeColor=#10739e;fillColor=#b1ddf0;align=left;verticalAlign=middle;spacingLeft=4;spacingRight=4;overflow=hidden;points=[[0,0.5],[1,0.5]];portConstraint=eastwest;rotatable=0;whiteSpace=wrap;html=1;" parent="W9X_AGISyNTUNxRQ-_Xt-65" vertex="1">
          <mxGeometry y="180" width="150" height="30" as="geometry" />
        </mxCell>
        <mxCell id="W9X_AGISyNTUNxRQ-_Xt-72" value="variation_tax_id" style="text;strokeColor=#10739e;fillColor=#b1ddf0;align=left;verticalAlign=middle;spacingLeft=4;spacingRight=4;overflow=hidden;points=[[0,0.5],[1,0.5]];portConstraint=eastwest;rotatable=0;whiteSpace=wrap;html=1;" parent="W9X_AGISyNTUNxRQ-_Xt-65" vertex="1">
          <mxGeometry y="210" width="150" height="30" as="geometry" />
        </mxCell>
        <mxCell id="W9X_AGISyNTUNxRQ-_Xt-73" value="shop_product_id" style="text;strokeColor=#10739e;fillColor=#b1ddf0;align=left;verticalAlign=middle;spacingLeft=4;spacingRight=4;overflow=hidden;points=[[0,0.5],[1,0.5]];portConstraint=eastwest;rotatable=0;whiteSpace=wrap;html=1;" parent="W9X_AGISyNTUNxRQ-_Xt-65" vertex="1">
          <mxGeometry y="240" width="150" height="30" as="geometry" />
        </mxCell>
        <mxCell id="W9X_AGISyNTUNxRQ-_Xt-74" value="sales_discount_code" style="swimlane;fontStyle=0;childLayout=stackLayout;horizontal=1;startSize=30;horizontalStack=0;resizeParent=1;resizeParentMax=0;resizeLast=0;collapsible=1;marginBottom=0;whiteSpace=wrap;html=1;fillColor=#D2A7E2;strokeColor=#56517e;" parent="1" vertex="1">
          <mxGeometry x="30" y="1030" width="150" height="150" as="geometry" />
        </mxCell>
        <mxCell id="W9X_AGISyNTUNxRQ-_Xt-75" value="code" style="text;strokeColor=#56517e;fillColor=#D2A7E2;align=left;verticalAlign=middle;spacingLeft=4;spacingRight=4;overflow=hidden;points=[[0,0.5],[1,0.5]];portConstraint=eastwest;rotatable=0;whiteSpace=wrap;html=1;" parent="W9X_AGISyNTUNxRQ-_Xt-74" vertex="1">
          <mxGeometry y="30" width="150" height="30" as="geometry" />
        </mxCell>
        <mxCell id="W9X_AGISyNTUNxRQ-_Xt-76" value="description" style="text;strokeColor=#56517e;fillColor=#D2A7E2;align=left;verticalAlign=middle;spacingLeft=4;spacingRight=4;overflow=hidden;points=[[0,0.5],[1,0.5]];portConstraint=eastwest;rotatable=0;whiteSpace=wrap;html=1;" parent="W9X_AGISyNTUNxRQ-_Xt-74" vertex="1">
          <mxGeometry y="60" width="150" height="30" as="geometry" />
        </mxCell>
        <mxCell id="W9X_AGISyNTUNxRQ-_Xt-83" value="discount" style="text;strokeColor=#56517e;fillColor=#D2A7E2;align=left;verticalAlign=middle;spacingLeft=4;spacingRight=4;overflow=hidden;points=[[0,0.5],[1,0.5]];portConstraint=eastwest;rotatable=0;whiteSpace=wrap;html=1;" parent="W9X_AGISyNTUNxRQ-_Xt-74" vertex="1">
          <mxGeometry y="90" width="150" height="30" as="geometry" />
        </mxCell>
        <mxCell id="W9X_AGISyNTUNxRQ-_Xt-84" value="discount_type" style="text;strokeColor=#56517e;fillColor=#D2A7E2;align=left;verticalAlign=middle;spacingLeft=4;spacingRight=4;overflow=hidden;points=[[0,0.5],[1,0.5]];portConstraint=eastwest;rotatable=0;whiteSpace=wrap;html=1;" parent="W9X_AGISyNTUNxRQ-_Xt-74" vertex="1">
          <mxGeometry y="120" width="150" height="30" as="geometry" />
        </mxCell>
        <mxCell id="W9X_AGISyNTUNxRQ-_Xt-87" value="sales_invoice" style="swimlane;fontStyle=0;childLayout=stackLayout;horizontal=1;startSize=30;horizontalStack=0;resizeParent=1;resizeParentMax=0;resizeLast=0;collapsible=1;marginBottom=0;whiteSpace=wrap;html=1;fillColor=#EA6B66;strokeColor=#B3524E;" parent="1" vertex="1">
          <mxGeometry x="36.25" y="910" width="137.5" height="60" as="geometry" />
        </mxCell>
        <mxCell id="W9X_AGISyNTUNxRQ-_Xt-90" value="sales_dicount_code_id" style="text;strokeColor=#B3524E;fillColor=#EA6B66;align=left;verticalAlign=middle;spacingLeft=4;spacingRight=4;overflow=hidden;points=[[0,0.5],[1,0.5]];portConstraint=eastwest;rotatable=0;whiteSpace=wrap;html=1;" parent="W9X_AGISyNTUNxRQ-_Xt-87" vertex="1">
          <mxGeometry y="30" width="137.5" height="30" as="geometry" />
        </mxCell>
        <mxCell id="W9X_AGISyNTUNxRQ-_Xt-93" value="sales_article_options" style="swimlane;fontStyle=0;childLayout=stackLayout;horizontal=1;startSize=30;horizontalStack=0;resizeParent=1;resizeParentMax=0;resizeLast=0;collapsible=1;marginBottom=0;whiteSpace=wrap;html=1;fillColor=#B9E0A5;strokeColor=#67AB9F;" parent="1" vertex="1">
          <mxGeometry x="265" y="850" width="137.5" height="120" as="geometry" />
        </mxCell>
        <mxCell id="W9X_AGISyNTUNxRQ-_Xt-95" value="shop_variation_id" style="text;strokeColor=#67AB9F;fillColor=#B9E0A5;align=left;verticalAlign=middle;spacingLeft=4;spacingRight=4;overflow=hidden;points=[[0,0.5],[1,0.5]];portConstraint=eastwest;rotatable=0;whiteSpace=wrap;html=1;" parent="W9X_AGISyNTUNxRQ-_Xt-93" vertex="1">
          <mxGeometry y="30" width="137.5" height="30" as="geometry" />
        </mxCell>
        <mxCell id="W9X_AGISyNTUNxRQ-_Xt-94" value="shop_options_ids" style="text;strokeColor=#67AB9F;fillColor=#B9E0A5;align=left;verticalAlign=middle;spacingLeft=4;spacingRight=4;overflow=hidden;points=[[0,0.5],[1,0.5]];portConstraint=eastwest;rotatable=0;whiteSpace=wrap;html=1;" parent="W9X_AGISyNTUNxRQ-_Xt-93" vertex="1">
          <mxGeometry y="60" width="137.5" height="30" as="geometry" />
        </mxCell>
        <mxCell id="W9X_AGISyNTUNxRQ-_Xt-96" value="sales_invoice_line_id" style="text;strokeColor=#67AB9F;fillColor=#B9E0A5;align=left;verticalAlign=middle;spacingLeft=4;spacingRight=4;overflow=hidden;points=[[0,0.5],[1,0.5]];portConstraint=eastwest;rotatable=0;whiteSpace=wrap;html=1;" parent="W9X_AGISyNTUNxRQ-_Xt-93" vertex="1">
          <mxGeometry y="90" width="137.5" height="30" as="geometry" />
        </mxCell>
        <mxCell id="W9X_AGISyNTUNxRQ-_Xt-100" style="edgeStyle=orthogonalEdgeStyle;rounded=0;orthogonalLoop=1;jettySize=auto;html=1;exitX=1;exitY=0.25;exitDx=0;exitDy=0;entryX=0;entryY=0.25;entryDx=0;entryDy=0;strokeColor=#EA6B66;movable=1;resizable=1;rotatable=1;deletable=1;editable=1;connectable=1;" parent="1" source="W9X_AGISyNTUNxRQ-_Xt-103" target="W9X_AGISyNTUNxRQ-_Xt-124" edge="1">
          <mxGeometry relative="1" as="geometry">
            <mxPoint x="490" y="275" as="targetPoint" />
          </mxGeometry>
        </mxCell>
        <mxCell id="W9X_AGISyNTUNxRQ-_Xt-101" style="edgeStyle=orthogonalEdgeStyle;rounded=0;orthogonalLoop=1;jettySize=auto;html=1;exitX=0.5;exitY=1;exitDx=0;exitDy=0;entryX=0.5;entryY=0;entryDx=0;entryDy=0;strokeColor=#A680B8;movable=1;resizable=1;rotatable=1;deletable=1;editable=1;connectable=1;" parent="1" source="W9X_AGISyNTUNxRQ-_Xt-124" target="W9X_AGISyNTUNxRQ-_Xt-119" edge="1">
          <mxGeometry relative="1" as="geometry" />
        </mxCell>
        <mxCell id="W9X_AGISyNTUNxRQ-_Xt-102" value="" style="edgeStyle=orthogonalEdgeStyle;rounded=0;orthogonalLoop=1;jettySize=auto;html=1;strokeColor=#67AB9F;entryX=0.5;entryY=1;entryDx=0;entryDy=0;exitX=0.5;exitY=0;exitDx=0;exitDy=0;movable=1;resizable=1;rotatable=1;deletable=1;editable=1;connectable=1;" parent="1" source="W9X_AGISyNTUNxRQ-_Xt-103" target="W9X_AGISyNTUNxRQ-_Xt-126" edge="1">
          <mxGeometry relative="1" as="geometry">
            <mxPoint x="524.3" y="340" as="sourcePoint" />
            <mxPoint x="524.5" y="260" as="targetPoint" />
          </mxGeometry>
        </mxCell>
        <mxCell id="W9X_AGISyNTUNxRQ-_Xt-103" value="sales_invoice_line" style="swimlane;fontStyle=0;childLayout=stackLayout;horizontal=1;startSize=30;horizontalStack=0;resizeParent=1;resizeParentMax=0;resizeLast=0;collapsible=1;marginBottom=0;whiteSpace=wrap;html=1;fillColor=#ffe6cc;strokeColor=#d79b00;movable=1;resizable=1;rotatable=1;deletable=1;editable=1;connectable=1;" parent="1" vertex="1">
          <mxGeometry x="284.5" y="340" width="137.5" height="180" as="geometry" />
        </mxCell>
        <mxCell id="W9X_AGISyNTUNxRQ-_Xt-104" value="sales_invoice_id" style="text;strokeColor=#d79b00;fillColor=#ffe6cc;align=left;verticalAlign=middle;spacingLeft=4;spacingRight=4;overflow=hidden;points=[[0,0.5],[1,0.5]];portConstraint=eastwest;rotatable=1;whiteSpace=wrap;html=1;movable=1;resizable=1;deletable=1;editable=1;connectable=1;" parent="W9X_AGISyNTUNxRQ-_Xt-103" vertex="1">
          <mxGeometry y="30" width="137.5" height="30" as="geometry" />
        </mxCell>
        <mxCell id="W9X_AGISyNTUNxRQ-_Xt-105" value="shop_variation_id" style="text;strokeColor=#d79b00;fillColor=#ffe6cc;align=left;verticalAlign=middle;spacingLeft=4;spacingRight=4;overflow=hidden;points=[[0,0.5],[1,0.5]];portConstraint=eastwest;rotatable=1;whiteSpace=wrap;html=1;movable=1;resizable=1;deletable=1;editable=1;connectable=1;" parent="W9X_AGISyNTUNxRQ-_Xt-103" vertex="1">
          <mxGeometry y="60" width="137.5" height="30" as="geometry" />
        </mxCell>
        <mxCell id="W9X_AGISyNTUNxRQ-_Xt-106" value="sales_dicount_code_id" style="text;strokeColor=#d79b00;fillColor=#ffe6cc;align=left;verticalAlign=middle;spacingLeft=4;spacingRight=4;overflow=hidden;points=[[0,0.5],[1,0.5]];portConstraint=eastwest;rotatable=1;whiteSpace=wrap;html=1;movable=1;resizable=1;deletable=1;editable=1;connectable=1;" parent="W9X_AGISyNTUNxRQ-_Xt-103" vertex="1">
          <mxGeometry y="90" width="137.5" height="30" as="geometry" />
        </mxCell>
        <mxCell id="W9X_AGISyNTUNxRQ-_Xt-107" value="quantity" style="text;strokeColor=#d79b00;fillColor=#ffe6cc;align=left;verticalAlign=middle;spacingLeft=4;spacingRight=4;overflow=hidden;points=[[0,0.5],[1,0.5]];portConstraint=eastwest;rotatable=1;whiteSpace=wrap;html=1;movable=1;resizable=1;deletable=1;editable=1;connectable=1;" parent="W9X_AGISyNTUNxRQ-_Xt-103" vertex="1">
          <mxGeometry y="120" width="137.5" height="30" as="geometry" />
        </mxCell>
        <mxCell id="W9X_AGISyNTUNxRQ-_Xt-108" value="total" style="text;strokeColor=#d79b00;fillColor=#ffe6cc;align=left;verticalAlign=middle;spacingLeft=4;spacingRight=4;overflow=hidden;points=[[0,0.5],[1,0.5]];portConstraint=eastwest;rotatable=1;whiteSpace=wrap;html=1;movable=1;resizable=1;deletable=1;editable=1;connectable=1;" parent="W9X_AGISyNTUNxRQ-_Xt-103" vertex="1">
          <mxGeometry y="150" width="137.5" height="30" as="geometry" />
        </mxCell>
        <mxCell id="W9X_AGISyNTUNxRQ-_Xt-109" style="edgeStyle=orthogonalEdgeStyle;rounded=0;orthogonalLoop=1;jettySize=auto;html=1;strokeColor=#10739E;entryX=1.003;entryY=0.052;entryDx=0;entryDy=0;entryPerimeter=0;movable=1;resizable=1;rotatable=1;deletable=1;editable=1;connectable=1;" parent="1" source="W9X_AGISyNTUNxRQ-_Xt-105" target="W9X_AGISyNTUNxRQ-_Xt-110" edge="1">
          <mxGeometry relative="1" as="geometry">
            <mxPoint x="700" y="405" as="targetPoint" />
          </mxGeometry>
        </mxCell>
        <mxCell id="W9X_AGISyNTUNxRQ-_Xt-110" value="shop_variation" style="swimlane;fontStyle=0;childLayout=stackLayout;horizontal=1;startSize=30;horizontalStack=0;resizeParent=1;resizeParentMax=0;resizeLast=0;collapsible=1;marginBottom=0;whiteSpace=wrap;html=1;fillColor=#b1ddf0;strokeColor=#10739e;movable=1;resizable=1;rotatable=1;deletable=1;editable=1;connectable=1;" parent="1" vertex="1">
          <mxGeometry x="50" y="270" width="150" height="270" as="geometry" />
        </mxCell>
        <mxCell id="W9X_AGISyNTUNxRQ-_Xt-111" value="variation_ref" style="text;strokeColor=#10739e;fillColor=#b1ddf0;align=left;verticalAlign=middle;spacingLeft=4;spacingRight=4;overflow=hidden;points=[[0,0.5],[1,0.5]];portConstraint=eastwest;rotatable=1;whiteSpace=wrap;html=1;movable=1;resizable=1;deletable=1;editable=1;connectable=1;" parent="W9X_AGISyNTUNxRQ-_Xt-110" vertex="1">
          <mxGeometry y="30" width="150" height="30" as="geometry" />
        </mxCell>
        <mxCell id="W9X_AGISyNTUNxRQ-_Xt-112" value="variation_ref_cat" style="text;strokeColor=#10739e;fillColor=#b1ddf0;align=left;verticalAlign=middle;spacingLeft=4;spacingRight=4;overflow=hidden;points=[[0,0.5],[1,0.5]];portConstraint=eastwest;rotatable=1;whiteSpace=wrap;html=1;movable=1;resizable=1;deletable=1;editable=1;connectable=1;" parent="W9X_AGISyNTUNxRQ-_Xt-110" vertex="1">
          <mxGeometry y="60" width="150" height="30" as="geometry" />
        </mxCell>
        <mxCell id="W9X_AGISyNTUNxRQ-_Xt-113" value="variation_name" style="text;strokeColor=#10739e;fillColor=#b1ddf0;align=left;verticalAlign=middle;spacingLeft=4;spacingRight=4;overflow=hidden;points=[[0,0.5],[1,0.5]];portConstraint=eastwest;rotatable=1;whiteSpace=wrap;html=1;movable=1;resizable=1;deletable=1;editable=1;connectable=1;" parent="W9X_AGISyNTUNxRQ-_Xt-110" vertex="1">
          <mxGeometry y="90" width="150" height="30" as="geometry" />
        </mxCell>
        <mxCell id="W9X_AGISyNTUNxRQ-_Xt-114" value="variation_price" style="text;strokeColor=#10739e;fillColor=#b1ddf0;align=left;verticalAlign=middle;spacingLeft=4;spacingRight=4;overflow=hidden;points=[[0,0.5],[1,0.5]];portConstraint=eastwest;rotatable=1;whiteSpace=wrap;html=1;movable=1;resizable=1;deletable=1;editable=1;connectable=1;" parent="W9X_AGISyNTUNxRQ-_Xt-110" vertex="1">
          <mxGeometry y="120" width="150" height="30" as="geometry" />
        </mxCell>
        <mxCell id="W9X_AGISyNTUNxRQ-_Xt-115" value="variation_discount" style="text;strokeColor=#10739e;fillColor=#b1ddf0;align=left;verticalAlign=middle;spacingLeft=4;spacingRight=4;overflow=hidden;points=[[0,0.5],[1,0.5]];portConstraint=eastwest;rotatable=1;whiteSpace=wrap;html=1;movable=1;resizable=1;deletable=1;editable=1;connectable=1;" parent="W9X_AGISyNTUNxRQ-_Xt-110" vertex="1">
          <mxGeometry y="150" width="150" height="30" as="geometry" />
        </mxCell>
        <mxCell id="W9X_AGISyNTUNxRQ-_Xt-116" value="variation_discount_type" style="text;strokeColor=#10739e;fillColor=#b1ddf0;align=left;verticalAlign=middle;spacingLeft=4;spacingRight=4;overflow=hidden;points=[[0,0.5],[1,0.5]];portConstraint=eastwest;rotatable=1;whiteSpace=wrap;html=1;movable=1;resizable=1;deletable=1;editable=1;connectable=1;" parent="W9X_AGISyNTUNxRQ-_Xt-110" vertex="1">
          <mxGeometry y="180" width="150" height="30" as="geometry" />
        </mxCell>
        <mxCell id="W9X_AGISyNTUNxRQ-_Xt-117" value="variation_tax_id" style="text;strokeColor=#10739e;fillColor=#b1ddf0;align=left;verticalAlign=middle;spacingLeft=4;spacingRight=4;overflow=hidden;points=[[0,0.5],[1,0.5]];portConstraint=eastwest;rotatable=1;whiteSpace=wrap;html=1;movable=1;resizable=1;deletable=1;editable=1;connectable=1;" parent="W9X_AGISyNTUNxRQ-_Xt-110" vertex="1">
          <mxGeometry y="210" width="150" height="30" as="geometry" />
        </mxCell>
        <mxCell id="W9X_AGISyNTUNxRQ-_Xt-118" value="shop_product_id" style="text;strokeColor=#10739e;fillColor=#b1ddf0;align=left;verticalAlign=middle;spacingLeft=4;spacingRight=4;overflow=hidden;points=[[0,0.5],[1,0.5]];portConstraint=eastwest;rotatable=1;whiteSpace=wrap;html=1;movable=1;resizable=1;deletable=1;editable=1;connectable=1;" parent="W9X_AGISyNTUNxRQ-_Xt-110" vertex="1">
          <mxGeometry y="240" width="150" height="30" as="geometry" />
        </mxCell>
        <mxCell id="W9X_AGISyNTUNxRQ-_Xt-119" value="sales_discount_code" style="swimlane;fontStyle=0;childLayout=stackLayout;horizontal=1;startSize=30;horizontalStack=0;resizeParent=1;resizeParentMax=0;resizeLast=0;collapsible=1;marginBottom=0;whiteSpace=wrap;html=1;fillColor=#D2A7E2;strokeColor=#56517e;movable=1;resizable=1;rotatable=1;deletable=1;editable=1;connectable=1;" parent="1" vertex="1">
          <mxGeometry x="534.75" y="440" width="150" height="150" as="geometry" />
        </mxCell>
        <mxCell id="W9X_AGISyNTUNxRQ-_Xt-120" value="code" style="text;strokeColor=#56517e;fillColor=#D2A7E2;align=left;verticalAlign=middle;spacingLeft=4;spacingRight=4;overflow=hidden;points=[[0,0.5],[1,0.5]];portConstraint=eastwest;rotatable=1;whiteSpace=wrap;html=1;movable=1;resizable=1;deletable=1;editable=1;connectable=1;" parent="W9X_AGISyNTUNxRQ-_Xt-119" vertex="1">
          <mxGeometry y="30" width="150" height="30" as="geometry" />
        </mxCell>
        <mxCell id="W9X_AGISyNTUNxRQ-_Xt-121" value="description" style="text;strokeColor=#56517e;fillColor=#D2A7E2;align=left;verticalAlign=middle;spacingLeft=4;spacingRight=4;overflow=hidden;points=[[0,0.5],[1,0.5]];portConstraint=eastwest;rotatable=1;whiteSpace=wrap;html=1;movable=1;resizable=1;deletable=1;editable=1;connectable=1;" parent="W9X_AGISyNTUNxRQ-_Xt-119" vertex="1">
          <mxGeometry y="60" width="150" height="30" as="geometry" />
        </mxCell>
        <mxCell id="W9X_AGISyNTUNxRQ-_Xt-122" value="discount" style="text;strokeColor=#56517e;fillColor=#D2A7E2;align=left;verticalAlign=middle;spacingLeft=4;spacingRight=4;overflow=hidden;points=[[0,0.5],[1,0.5]];portConstraint=eastwest;rotatable=1;whiteSpace=wrap;html=1;movable=1;resizable=1;deletable=1;editable=1;connectable=1;" parent="W9X_AGISyNTUNxRQ-_Xt-119" vertex="1">
          <mxGeometry y="90" width="150" height="30" as="geometry" />
        </mxCell>
        <mxCell id="W9X_AGISyNTUNxRQ-_Xt-123" value="discount_type" style="text;strokeColor=#56517e;fillColor=#D2A7E2;align=left;verticalAlign=middle;spacingLeft=4;spacingRight=4;overflow=hidden;points=[[0,0.5],[1,0.5]];portConstraint=eastwest;rotatable=1;whiteSpace=wrap;html=1;movable=1;resizable=1;deletable=1;editable=1;connectable=1;" parent="W9X_AGISyNTUNxRQ-_Xt-119" vertex="1">
          <mxGeometry y="120" width="150" height="30" as="geometry" />
        </mxCell>
        <mxCell id="W9X_AGISyNTUNxRQ-_Xt-227" value="" style="edgeStyle=orthogonalEdgeStyle;rounded=0;orthogonalLoop=1;jettySize=auto;html=1;strokeColor=#d6b656;fillColor=#fff2cc;entryX=0.5;entryY=1;entryDx=0;entryDy=0;movable=1;resizable=1;rotatable=1;deletable=1;editable=1;connectable=1;" parent="1" source="W9X_AGISyNTUNxRQ-_Xt-124" target="W9X_AGISyNTUNxRQ-_Xt-222" edge="1">
          <mxGeometry relative="1" as="geometry">
            <mxPoint x="610" y="190" as="targetPoint" />
          </mxGeometry>
        </mxCell>
        <mxCell id="W9X_AGISyNTUNxRQ-_Xt-124" value="sales_invoice" style="swimlane;fontStyle=0;childLayout=stackLayout;horizontal=1;startSize=30;horizontalStack=0;resizeParent=1;resizeParentMax=0;resizeLast=0;collapsible=1;marginBottom=0;whiteSpace=wrap;html=1;fillColor=#EA6B66;strokeColor=#B3524E;movable=1;resizable=1;rotatable=1;deletable=1;editable=1;connectable=1;" parent="1" vertex="1">
          <mxGeometry x="541" y="270" width="137.5" height="150" as="geometry" />
        </mxCell>
        <mxCell id="W9X_AGISyNTUNxRQ-_Xt-125" value="invoice_series_id" style="text;strokeColor=#B3524E;fillColor=#EA6B66;align=left;verticalAlign=middle;spacingLeft=4;spacingRight=4;overflow=hidden;points=[[0,0.5],[1,0.5]];portConstraint=eastwest;rotatable=1;whiteSpace=wrap;html=1;movable=1;resizable=1;deletable=1;editable=1;connectable=1;" parent="W9X_AGISyNTUNxRQ-_Xt-124" vertex="1">
          <mxGeometry y="30" width="137.5" height="30" as="geometry" />
        </mxCell>
        <mxCell id="W9X_AGISyNTUNxRQ-_Xt-228" value="timestamps" style="text;strokeColor=#B3524E;fillColor=#EA6B66;align=left;verticalAlign=middle;spacingLeft=4;spacingRight=4;overflow=hidden;points=[[0,0.5],[1,0.5]];portConstraint=eastwest;rotatable=1;whiteSpace=wrap;html=1;movable=1;resizable=1;deletable=1;editable=1;connectable=1;" parent="W9X_AGISyNTUNxRQ-_Xt-124" vertex="1">
          <mxGeometry y="60" width="137.5" height="30" as="geometry" />
        </mxCell>
        <mxCell id="W9X_AGISyNTUNxRQ-_Xt-229" value="customer_account_id" style="text;strokeColor=#B3524E;fillColor=#EA6B66;align=left;verticalAlign=middle;spacingLeft=4;spacingRight=4;overflow=hidden;points=[[0,0.5],[1,0.5]];portConstraint=eastwest;rotatable=1;whiteSpace=wrap;html=1;movable=1;resizable=1;deletable=1;editable=1;connectable=1;" parent="W9X_AGISyNTUNxRQ-_Xt-124" vertex="1">
          <mxGeometry y="90" width="137.5" height="30" as="geometry" />
        </mxCell>
        <mxCell id="W9X_AGISyNTUNxRQ-_Xt-225" value="sales_dicount_code_id" style="text;strokeColor=#B3524E;fillColor=#EA6B66;align=left;verticalAlign=middle;spacingLeft=4;spacingRight=4;overflow=hidden;points=[[0,0.5],[1,0.5]];portConstraint=eastwest;rotatable=1;whiteSpace=wrap;html=1;movable=1;resizable=1;deletable=1;editable=1;connectable=1;" parent="W9X_AGISyNTUNxRQ-_Xt-124" vertex="1">
          <mxGeometry y="120" width="137.5" height="30" as="geometry" />
        </mxCell>
        <mxCell id="W9X_AGISyNTUNxRQ-_Xt-126" value="sales_article_options" style="swimlane;fontStyle=0;childLayout=stackLayout;horizontal=1;startSize=30;horizontalStack=0;resizeParent=1;resizeParentMax=0;resizeLast=0;collapsible=1;marginBottom=0;whiteSpace=wrap;html=1;fillColor=#B9E0A5;strokeColor=#67AB9F;movable=1;resizable=1;rotatable=1;deletable=1;editable=1;connectable=1;" parent="1" vertex="1">
          <mxGeometry x="284.75" y="140" width="137.5" height="120" as="geometry" />
        </mxCell>
        <mxCell id="W9X_AGISyNTUNxRQ-_Xt-127" value="shop_variation_id" style="text;strokeColor=#67AB9F;fillColor=#B9E0A5;align=left;verticalAlign=middle;spacingLeft=4;spacingRight=4;overflow=hidden;points=[[0,0.5],[1,0.5]];portConstraint=eastwest;rotatable=1;whiteSpace=wrap;html=1;movable=1;resizable=1;deletable=1;editable=1;connectable=1;" parent="W9X_AGISyNTUNxRQ-_Xt-126" vertex="1">
          <mxGeometry y="30" width="137.5" height="30" as="geometry" />
        </mxCell>
        <mxCell id="W9X_AGISyNTUNxRQ-_Xt-128" value="shop_options_ids" style="text;strokeColor=#67AB9F;fillColor=#B9E0A5;align=left;verticalAlign=middle;spacingLeft=4;spacingRight=4;overflow=hidden;points=[[0,0.5],[1,0.5]];portConstraint=eastwest;rotatable=1;whiteSpace=wrap;html=1;movable=1;resizable=1;deletable=1;editable=1;connectable=1;" parent="W9X_AGISyNTUNxRQ-_Xt-126" vertex="1">
          <mxGeometry y="60" width="137.5" height="30" as="geometry" />
        </mxCell>
        <mxCell id="W9X_AGISyNTUNxRQ-_Xt-129" value="sales_invoice_line_id" style="text;strokeColor=#67AB9F;fillColor=#B9E0A5;align=left;verticalAlign=middle;spacingLeft=4;spacingRight=4;overflow=hidden;points=[[0,0.5],[1,0.5]];portConstraint=eastwest;rotatable=1;whiteSpace=wrap;html=1;movable=1;resizable=1;deletable=1;editable=1;connectable=1;" parent="W9X_AGISyNTUNxRQ-_Xt-126" vertex="1">
          <mxGeometry y="90" width="137.5" height="30" as="geometry" />
        </mxCell>
        <mxCell id="W9X_AGISyNTUNxRQ-_Xt-130" style="edgeStyle=orthogonalEdgeStyle;rounded=0;orthogonalLoop=1;jettySize=auto;html=1;exitX=1;exitY=0;exitDx=0;exitDy=0;entryX=0;entryY=0.5;entryDx=0;entryDy=0;" parent="1" source="W9X_AGISyNTUNxRQ-_Xt-134" target="W9X_AGISyNTUNxRQ-_Xt-141" edge="1">
          <mxGeometry relative="1" as="geometry">
            <mxPoint x="-62.5" y="1970" as="targetPoint" />
            <Array as="points">
              <mxPoint x="167.5" y="1960" />
              <mxPoint x="167.5" y="1930" />
            </Array>
          </mxGeometry>
        </mxCell>
        <mxCell id="W9X_AGISyNTUNxRQ-_Xt-131" style="edgeStyle=orthogonalEdgeStyle;rounded=0;orthogonalLoop=1;jettySize=auto;html=1;exitX=0.5;exitY=1;exitDx=0;exitDy=0;" parent="1" source="W9X_AGISyNTUNxRQ-_Xt-134" target="W9X_AGISyNTUNxRQ-_Xt-149" edge="1">
          <mxGeometry relative="1" as="geometry" />
        </mxCell>
        <mxCell id="W9X_AGISyNTUNxRQ-_Xt-132" style="edgeStyle=orthogonalEdgeStyle;rounded=0;orthogonalLoop=1;jettySize=auto;html=1;exitX=0.5;exitY=0;exitDx=0;exitDy=0;" parent="1" source="W9X_AGISyNTUNxRQ-_Xt-134" target="W9X_AGISyNTUNxRQ-_Xt-154" edge="1">
          <mxGeometry relative="1" as="geometry" />
        </mxCell>
        <mxCell id="W9X_AGISyNTUNxRQ-_Xt-133" style="edgeStyle=orthogonalEdgeStyle;rounded=0;orthogonalLoop=1;jettySize=auto;html=1;exitX=1;exitY=1;exitDx=0;exitDy=0;entryX=0;entryY=0.5;entryDx=0;entryDy=0;" parent="1" source="W9X_AGISyNTUNxRQ-_Xt-134" target="W9X_AGISyNTUNxRQ-_Xt-158" edge="1">
          <mxGeometry relative="1" as="geometry">
            <mxPoint x="287.5" y="2060" as="targetPoint" />
            <Array as="points">
              <mxPoint x="167.5" y="2000" />
              <mxPoint x="167.5" y="2060" />
            </Array>
          </mxGeometry>
        </mxCell>
        <mxCell id="W9X_AGISyNTUNxRQ-_Xt-134" value="&lt;div&gt;invoice&lt;/div&gt;" style="rounded=0;whiteSpace=wrap;html=1;fillColor=#FC6D6D;strokeColor=#b85450;" parent="1" vertex="1">
          <mxGeometry x="27.5" y="1960" width="90" height="40" as="geometry" />
        </mxCell>
        <mxCell id="W9X_AGISyNTUNxRQ-_Xt-135" style="edgeStyle=orthogonalEdgeStyle;rounded=0;orthogonalLoop=1;jettySize=auto;html=1;exitX=1;exitY=0.5;exitDx=0;exitDy=0;entryX=0;entryY=0.25;entryDx=0;entryDy=0;fillColor=#d5e8d4;strokeColor=#82b366;" parent="1" source="W9X_AGISyNTUNxRQ-_Xt-147" target="W9X_AGISyNTUNxRQ-_Xt-144" edge="1">
          <mxGeometry relative="1" as="geometry" />
        </mxCell>
        <mxCell id="W9X_AGISyNTUNxRQ-_Xt-136" style="edgeStyle=orthogonalEdgeStyle;rounded=0;orthogonalLoop=1;jettySize=auto;html=1;exitX=1;exitY=0.5;exitDx=0;exitDy=0;entryX=0.5;entryY=0;entryDx=0;entryDy=0;fillColor=#d5e8d4;strokeColor=#82b366;" parent="1" source="W9X_AGISyNTUNxRQ-_Xt-137" target="W9X_AGISyNTUNxRQ-_Xt-147" edge="1">
          <mxGeometry relative="1" as="geometry" />
        </mxCell>
        <mxCell id="W9X_AGISyNTUNxRQ-_Xt-137" value="&lt;div&gt;Company&lt;/div&gt;" style="swimlane;fontStyle=0;childLayout=stackLayout;horizontal=1;startSize=30;horizontalStack=0;resizeParent=1;resizeParentMax=0;resizeLast=0;collapsible=1;marginBottom=0;whiteSpace=wrap;html=1;fillColor=#d5e8d4;strokeColor=#82b366;" parent="1" vertex="1">
          <mxGeometry x="237.5" y="1750" width="115" height="60" as="geometry" />
        </mxCell>
        <mxCell id="W9X_AGISyNTUNxRQ-_Xt-138" value="NIF/CIF" style="text;strokeColor=#82b366;fillColor=#d5e8d4;align=left;verticalAlign=middle;spacingLeft=4;spacingRight=4;overflow=hidden;points=[[0,0.5],[1,0.5]];portConstraint=eastwest;rotatable=0;whiteSpace=wrap;html=1;" parent="W9X_AGISyNTUNxRQ-_Xt-137" vertex="1">
          <mxGeometry y="30" width="115" height="30" as="geometry" />
        </mxCell>
        <mxCell id="W9X_AGISyNTUNxRQ-_Xt-139" style="edgeStyle=orthogonalEdgeStyle;rounded=0;orthogonalLoop=1;jettySize=auto;html=1;exitX=0.5;exitY=0;exitDx=0;exitDy=0;startArrow=none;entryX=0.498;entryY=1.021;entryDx=0;entryDy=0;entryPerimeter=0;fillColor=#d5e8d4;strokeColor=#82b366;" parent="1" source="W9X_AGISyNTUNxRQ-_Xt-142" target="W9X_AGISyNTUNxRQ-_Xt-138" edge="1">
          <mxGeometry relative="1" as="geometry">
            <mxPoint x="284" y="1820" as="targetPoint" />
          </mxGeometry>
        </mxCell>
        <mxCell id="W9X_AGISyNTUNxRQ-_Xt-140" style="edgeStyle=orthogonalEdgeStyle;rounded=0;orthogonalLoop=1;jettySize=auto;html=1;exitX=1;exitY=0.5;exitDx=0;exitDy=0;entryX=0;entryY=0.5;entryDx=0;entryDy=0;fillColor=#d5e8d4;strokeColor=#82b366;" parent="1" source="W9X_AGISyNTUNxRQ-_Xt-141" target="W9X_AGISyNTUNxRQ-_Xt-147" edge="1">
          <mxGeometry relative="1" as="geometry" />
        </mxCell>
        <mxCell id="W9X_AGISyNTUNxRQ-_Xt-141" value="Company_id ?" style="rhombus;whiteSpace=wrap;html=1;fillColor=#d5e8d4;strokeColor=#82b366;" parent="1" vertex="1">
          <mxGeometry x="245" y="1880" width="100" height="100" as="geometry" />
        </mxCell>
        <mxCell id="W9X_AGISyNTUNxRQ-_Xt-142" value="yes" style="text;html=1;align=center;verticalAlign=middle;resizable=0;points=[];autosize=1;" parent="1" vertex="1">
          <mxGeometry x="275" y="1850" width="40" height="30" as="geometry" />
        </mxCell>
        <mxCell id="W9X_AGISyNTUNxRQ-_Xt-143" value="" style="edgeStyle=orthogonalEdgeStyle;rounded=0;orthogonalLoop=1;jettySize=auto;html=1;exitX=0.5;exitY=0;exitDx=0;exitDy=0;entryX=0.501;entryY=1.01;entryDx=0;entryDy=0;entryPerimeter=0;endArrow=none;fillColor=#d5e8d4;strokeColor=#82b366;" parent="1" source="W9X_AGISyNTUNxRQ-_Xt-141" target="W9X_AGISyNTUNxRQ-_Xt-142" edge="1">
          <mxGeometry relative="1" as="geometry">
            <mxPoint x="285" y="1880" as="sourcePoint" />
            <mxPoint x="285.115" y="1800.3000000000002" as="targetPoint" />
          </mxGeometry>
        </mxCell>
        <mxCell id="W9X_AGISyNTUNxRQ-_Xt-144" value="Addresses" style="swimlane;fontStyle=0;childLayout=stackLayout;horizontal=1;startSize=30;horizontalStack=0;resizeParent=1;resizeParentMax=0;resizeLast=0;collapsible=1;marginBottom=0;whiteSpace=wrap;html=1;fillColor=#d5e8d4;strokeColor=#82b366;" parent="1" vertex="1">
          <mxGeometry x="525" y="1885" width="115" height="90" as="geometry" />
        </mxCell>
        <mxCell id="W9X_AGISyNTUNxRQ-_Xt-145" value="tax_residence" style="text;strokeColor=#82b366;fillColor=#d5e8d4;align=left;verticalAlign=middle;spacingLeft=4;spacingRight=4;overflow=hidden;points=[[0,0.5],[1,0.5]];portConstraint=eastwest;rotatable=0;whiteSpace=wrap;html=1;" parent="W9X_AGISyNTUNxRQ-_Xt-144" vertex="1">
          <mxGeometry y="30" width="115" height="30" as="geometry" />
        </mxCell>
        <mxCell id="W9X_AGISyNTUNxRQ-_Xt-146" value="shipping_address" style="text;strokeColor=#82b366;fillColor=#d5e8d4;align=left;verticalAlign=middle;spacingLeft=4;spacingRight=4;overflow=hidden;points=[[0,0.5],[1,0.5]];portConstraint=eastwest;rotatable=0;whiteSpace=wrap;html=1;" parent="W9X_AGISyNTUNxRQ-_Xt-144" vertex="1">
          <mxGeometry y="60" width="115" height="30" as="geometry" />
        </mxCell>
        <mxCell id="W9X_AGISyNTUNxRQ-_Xt-147" value="&lt;div&gt;Customer Account&lt;br&gt;&lt;/div&gt;" style="rounded=0;whiteSpace=wrap;html=1;fillColor=#d5e8d4;strokeColor=#82b366;" parent="1" vertex="1">
          <mxGeometry x="385" y="1910" width="90" height="40" as="geometry" />
        </mxCell>
        <mxCell id="W9X_AGISyNTUNxRQ-_Xt-148" style="edgeStyle=orthogonalEdgeStyle;rounded=0;orthogonalLoop=1;jettySize=auto;html=1;exitX=0.5;exitY=1;exitDx=0;exitDy=0;fillColor=#fff2cc;strokeColor=#d6b656;" parent="1" source="W9X_AGISyNTUNxRQ-_Xt-149" target="W9X_AGISyNTUNxRQ-_Xt-151" edge="1">
          <mxGeometry relative="1" as="geometry" />
        </mxCell>
        <mxCell id="W9X_AGISyNTUNxRQ-_Xt-149" value="invoice_code" style="rounded=0;whiteSpace=wrap;html=1;fillColor=#fff2cc;strokeColor=#d6b656;" parent="1" vertex="1">
          <mxGeometry x="27.5" y="2050" width="90" height="40" as="geometry" />
        </mxCell>
        <mxCell id="W9X_AGISyNTUNxRQ-_Xt-150" style="edgeStyle=orthogonalEdgeStyle;rounded=0;orthogonalLoop=1;jettySize=auto;html=1;exitX=0.5;exitY=1;exitDx=0;exitDy=0;fillColor=#fff2cc;strokeColor=#d6b656;" parent="1" source="W9X_AGISyNTUNxRQ-_Xt-151" target="W9X_AGISyNTUNxRQ-_Xt-152" edge="1">
          <mxGeometry relative="1" as="geometry" />
        </mxCell>
        <mxCell id="W9X_AGISyNTUNxRQ-_Xt-151" value="series" style="rounded=0;whiteSpace=wrap;html=1;fillColor=#fff2cc;strokeColor=#d6b656;" parent="1" vertex="1">
          <mxGeometry x="27.5" y="2140" width="90" height="40" as="geometry" />
        </mxCell>
        <mxCell id="W9X_AGISyNTUNxRQ-_Xt-152" value="invoice_serie(last)+1" style="rounded=0;whiteSpace=wrap;html=1;fillColor=#fff2cc;strokeColor=#d6b656;" parent="1" vertex="1">
          <mxGeometry x="10" y="2230" width="125" height="40" as="geometry" />
        </mxCell>
        <mxCell id="W9X_AGISyNTUNxRQ-_Xt-153" style="edgeStyle=orthogonalEdgeStyle;rounded=0;orthogonalLoop=1;jettySize=auto;html=1;exitX=0.5;exitY=0;exitDx=0;exitDy=0;fillColor=#dae8fc;strokeColor=#6c8ebf;" parent="1" source="W9X_AGISyNTUNxRQ-_Xt-154" target="W9X_AGISyNTUNxRQ-_Xt-156" edge="1">
          <mxGeometry relative="1" as="geometry" />
        </mxCell>
        <mxCell id="W9X_AGISyNTUNxRQ-_Xt-154" value="&lt;div&gt;emission_date&lt;/div&gt;" style="rounded=0;whiteSpace=wrap;html=1;fillColor=#dae8fc;strokeColor=#6c8ebf;" parent="1" vertex="1">
          <mxGeometry x="27.5" y="1870" width="90" height="40" as="geometry" />
        </mxCell>
        <mxCell id="W9X_AGISyNTUNxRQ-_Xt-155" style="edgeStyle=orthogonalEdgeStyle;rounded=0;orthogonalLoop=1;jettySize=auto;html=1;exitX=0.5;exitY=0;exitDx=0;exitDy=0;fillColor=#dae8fc;strokeColor=#6c8ebf;" parent="1" source="W9X_AGISyNTUNxRQ-_Xt-156" target="W9X_AGISyNTUNxRQ-_Xt-157" edge="1">
          <mxGeometry relative="1" as="geometry" />
        </mxCell>
        <mxCell id="W9X_AGISyNTUNxRQ-_Xt-156" value="&lt;div&gt;emission_date&lt;/div&gt;" style="rounded=0;whiteSpace=wrap;html=1;fillColor=#dae8fc;strokeColor=#6c8ebf;" parent="1" vertex="1">
          <mxGeometry x="27.5" y="1780" width="90" height="40" as="geometry" />
        </mxCell>
        <mxCell id="W9X_AGISyNTUNxRQ-_Xt-157" value="&lt;div&gt;emission_date&lt;/div&gt;" style="rounded=0;whiteSpace=wrap;html=1;fillColor=#dae8fc;strokeColor=#6c8ebf;" parent="1" vertex="1">
          <mxGeometry x="27.5" y="1720" width="90" height="40" as="geometry" />
        </mxCell>
        <mxCell id="W9X_AGISyNTUNxRQ-_Xt-158" value="Shop_fiscal_data" style="rounded=0;whiteSpace=wrap;html=1;fillColor=#f8cecc;strokeColor=#b85450;" parent="1" vertex="1">
          <mxGeometry x="220" y="2040" width="132.5" height="40" as="geometry" />
        </mxCell>
        <mxCell id="W9X_AGISyNTUNxRQ-_Xt-162" style="edgeStyle=orthogonalEdgeStyle;rounded=0;orthogonalLoop=1;jettySize=auto;html=1;exitX=1;exitY=0;exitDx=0;exitDy=0;entryX=0;entryY=0.5;entryDx=0;entryDy=0;" parent="1" source="W9X_AGISyNTUNxRQ-_Xt-166" target="W9X_AGISyNTUNxRQ-_Xt-172" edge="1">
          <mxGeometry relative="1" as="geometry">
            <mxPoint x="617.5" y="1970" as="targetPoint" />
            <Array as="points">
              <mxPoint x="833" y="1960" />
              <mxPoint x="833" y="1800" />
            </Array>
          </mxGeometry>
        </mxCell>
        <mxCell id="W9X_AGISyNTUNxRQ-_Xt-163" style="edgeStyle=orthogonalEdgeStyle;rounded=0;orthogonalLoop=1;jettySize=auto;html=1;exitX=0.5;exitY=1;exitDx=0;exitDy=0;" parent="1" source="W9X_AGISyNTUNxRQ-_Xt-166" target="W9X_AGISyNTUNxRQ-_Xt-181" edge="1">
          <mxGeometry relative="1" as="geometry" />
        </mxCell>
        <mxCell id="W9X_AGISyNTUNxRQ-_Xt-164" style="edgeStyle=orthogonalEdgeStyle;rounded=0;orthogonalLoop=1;jettySize=auto;html=1;exitX=0.5;exitY=0;exitDx=0;exitDy=0;" parent="1" source="W9X_AGISyNTUNxRQ-_Xt-166" target="W9X_AGISyNTUNxRQ-_Xt-186" edge="1">
          <mxGeometry relative="1" as="geometry" />
        </mxCell>
        <mxCell id="W9X_AGISyNTUNxRQ-_Xt-165" style="edgeStyle=orthogonalEdgeStyle;rounded=0;orthogonalLoop=1;jettySize=auto;html=1;exitX=1;exitY=1;exitDx=0;exitDy=0;entryX=0;entryY=0.5;entryDx=0;entryDy=0;" parent="1" source="W9X_AGISyNTUNxRQ-_Xt-166" target="W9X_AGISyNTUNxRQ-_Xt-190" edge="1">
          <mxGeometry relative="1" as="geometry">
            <mxPoint x="967.5" y="2060" as="targetPoint" />
            <Array as="points">
              <mxPoint x="833" y="2000" />
              <mxPoint x="833" y="2180" />
            </Array>
          </mxGeometry>
        </mxCell>
        <mxCell id="W9X_AGISyNTUNxRQ-_Xt-166" value="&lt;div&gt;invoice&lt;/div&gt;" style="rounded=0;whiteSpace=wrap;html=1;fillColor=#FC6D6D;strokeColor=#b85450;" parent="1" vertex="1">
          <mxGeometry x="707.5" y="1960" width="90" height="40" as="geometry" />
        </mxCell>
        <mxCell id="W9X_AGISyNTUNxRQ-_Xt-167" style="edgeStyle=orthogonalEdgeStyle;rounded=0;orthogonalLoop=1;jettySize=auto;html=1;exitX=0.5;exitY=1;exitDx=0;exitDy=0;entryX=0;entryY=0.5;entryDx=0;entryDy=0;fillColor=#d5e8d4;strokeColor=#82b366;" parent="1" source="W9X_AGISyNTUNxRQ-_Xt-179" target="W9X_AGISyNTUNxRQ-_Xt-177" edge="1">
          <mxGeometry relative="1" as="geometry" />
        </mxCell>
        <mxCell id="W9X_AGISyNTUNxRQ-_Xt-168" style="edgeStyle=orthogonalEdgeStyle;rounded=0;orthogonalLoop=1;jettySize=auto;html=1;entryX=0.5;entryY=0;entryDx=0;entryDy=0;fillColor=#d5e8d4;strokeColor=#82b366;exitX=0.467;exitY=1;exitDx=0;exitDy=0;exitPerimeter=0;" parent="1" source="W9X_AGISyNTUNxRQ-_Xt-170" target="W9X_AGISyNTUNxRQ-_Xt-179" edge="1">
          <mxGeometry relative="1" as="geometry">
            <mxPoint x="1133" y="2000" as="sourcePoint" />
          </mxGeometry>
        </mxCell>
        <mxCell id="W9X_AGISyNTUNxRQ-_Xt-169" value="&lt;div&gt;Company&lt;/div&gt;" style="swimlane;fontStyle=0;childLayout=stackLayout;horizontal=1;startSize=30;horizontalStack=0;resizeParent=1;resizeParentMax=0;resizeLast=0;collapsible=1;marginBottom=0;whiteSpace=wrap;html=1;fillColor=#d5e8d4;strokeColor=#82b366;" parent="1" vertex="1">
          <mxGeometry x="966.75" y="1870" width="115" height="60" as="geometry" />
        </mxCell>
        <mxCell id="W9X_AGISyNTUNxRQ-_Xt-170" value="NIF/CIF" style="text;strokeColor=#82b366;fillColor=#d5e8d4;align=left;verticalAlign=middle;spacingLeft=4;spacingRight=4;overflow=hidden;points=[[0,0.5],[1,0.5]];portConstraint=eastwest;rotatable=0;whiteSpace=wrap;html=1;" parent="W9X_AGISyNTUNxRQ-_Xt-169" vertex="1">
          <mxGeometry y="30" width="115" height="30" as="geometry" />
        </mxCell>
        <mxCell id="W9X_AGISyNTUNxRQ-_Xt-171" style="edgeStyle=orthogonalEdgeStyle;rounded=0;orthogonalLoop=1;jettySize=auto;html=1;exitX=0.5;exitY=1;exitDx=0;exitDy=0;entryX=0.5;entryY=0;entryDx=0;entryDy=0;fillColor=#d5e8d4;strokeColor=#82b366;" parent="1" source="W9X_AGISyNTUNxRQ-_Xt-172" target="W9X_AGISyNTUNxRQ-_Xt-179" edge="1">
          <mxGeometry relative="1" as="geometry" />
        </mxCell>
        <mxCell id="W9X_AGISyNTUNxRQ-_Xt-172" value="Company_id ?" style="rhombus;whiteSpace=wrap;html=1;fillColor=#d5e8d4;strokeColor=#82b366;" parent="1" vertex="1">
          <mxGeometry x="882.25" y="1750" width="100" height="100" as="geometry" />
        </mxCell>
        <mxCell id="W9X_AGISyNTUNxRQ-_Xt-173" value="" style="edgeStyle=orthogonalEdgeStyle;rounded=0;orthogonalLoop=1;jettySize=auto;html=1;strokeColor=#82b366;entryX=0.5;entryY=0;entryDx=0;entryDy=0;fillColor=#d5e8d4;" parent="1" source="W9X_AGISyNTUNxRQ-_Xt-174" target="W9X_AGISyNTUNxRQ-_Xt-169" edge="1">
          <mxGeometry relative="1" as="geometry" />
        </mxCell>
        <mxCell id="W9X_AGISyNTUNxRQ-_Xt-174" value="yes" style="text;html=1;align=center;verticalAlign=middle;resizable=0;points=[];autosize=1;" parent="1" vertex="1">
          <mxGeometry x="1004.25" y="1785" width="40" height="30" as="geometry" />
        </mxCell>
        <mxCell id="W9X_AGISyNTUNxRQ-_Xt-175" value="" style="edgeStyle=orthogonalEdgeStyle;rounded=0;orthogonalLoop=1;jettySize=auto;html=1;exitX=1;exitY=0.5;exitDx=0;exitDy=0;endArrow=none;fillColor=#d5e8d4;strokeColor=#82b366;entryX=-0.019;entryY=0.5;entryDx=0;entryDy=0;entryPerimeter=0;" parent="1" source="W9X_AGISyNTUNxRQ-_Xt-172" target="W9X_AGISyNTUNxRQ-_Xt-174" edge="1">
          <mxGeometry relative="1" as="geometry">
            <mxPoint x="928" y="1880" as="sourcePoint" />
            <mxPoint x="928.115" y="1800.3000000000002" as="targetPoint" />
            <Array as="points">
              <mxPoint x="993" y="1800" />
              <mxPoint x="993" y="1800" />
            </Array>
          </mxGeometry>
        </mxCell>
        <mxCell id="W9X_AGISyNTUNxRQ-_Xt-176" value="Addresses" style="swimlane;fontStyle=0;childLayout=stackLayout;horizontal=1;startSize=30;horizontalStack=0;resizeParent=1;resizeParentMax=0;resizeLast=0;collapsible=1;marginBottom=0;whiteSpace=wrap;html=1;fillColor=#d5e8d4;strokeColor=#82b366;" parent="1" vertex="1">
          <mxGeometry x="1004.25" y="2040" width="115" height="90" as="geometry" />
        </mxCell>
        <mxCell id="W9X_AGISyNTUNxRQ-_Xt-177" value="tax_residence" style="text;strokeColor=#82b366;fillColor=#d5e8d4;align=left;verticalAlign=middle;spacingLeft=4;spacingRight=4;overflow=hidden;points=[[0,0.5],[1,0.5]];portConstraint=eastwest;rotatable=0;whiteSpace=wrap;html=1;" parent="W9X_AGISyNTUNxRQ-_Xt-176" vertex="1">
          <mxGeometry y="30" width="115" height="30" as="geometry" />
        </mxCell>
        <mxCell id="W9X_AGISyNTUNxRQ-_Xt-178" value="shipping_address" style="text;strokeColor=#82b366;fillColor=#d5e8d4;align=left;verticalAlign=middle;spacingLeft=4;spacingRight=4;overflow=hidden;points=[[0,0.5],[1,0.5]];portConstraint=eastwest;rotatable=0;whiteSpace=wrap;html=1;" parent="W9X_AGISyNTUNxRQ-_Xt-176" vertex="1">
          <mxGeometry y="60" width="115" height="30" as="geometry" />
        </mxCell>
        <mxCell id="W9X_AGISyNTUNxRQ-_Xt-179" value="&lt;div&gt;Customer Account&lt;br&gt;&lt;/div&gt;" style="rounded=0;whiteSpace=wrap;html=1;fillColor=#d5e8d4;strokeColor=#82b366;" parent="1" vertex="1">
          <mxGeometry x="887.25" y="1985" width="90" height="40" as="geometry" />
        </mxCell>
        <mxCell id="W9X_AGISyNTUNxRQ-_Xt-180" style="edgeStyle=orthogonalEdgeStyle;rounded=0;orthogonalLoop=1;jettySize=auto;html=1;exitX=0.5;exitY=1;exitDx=0;exitDy=0;fillColor=#fff2cc;strokeColor=#d6b656;" parent="1" source="W9X_AGISyNTUNxRQ-_Xt-181" target="W9X_AGISyNTUNxRQ-_Xt-183" edge="1">
          <mxGeometry relative="1" as="geometry" />
        </mxCell>
        <mxCell id="W9X_AGISyNTUNxRQ-_Xt-181" value="invoice_code" style="rounded=0;whiteSpace=wrap;html=1;fillColor=#fff2cc;strokeColor=#d6b656;" parent="1" vertex="1">
          <mxGeometry x="707.5" y="2050" width="90" height="40" as="geometry" />
        </mxCell>
        <mxCell id="W9X_AGISyNTUNxRQ-_Xt-182" style="edgeStyle=orthogonalEdgeStyle;rounded=0;orthogonalLoop=1;jettySize=auto;html=1;exitX=0.5;exitY=1;exitDx=0;exitDy=0;fillColor=#fff2cc;strokeColor=#d6b656;" parent="1" source="W9X_AGISyNTUNxRQ-_Xt-183" target="W9X_AGISyNTUNxRQ-_Xt-184" edge="1">
          <mxGeometry relative="1" as="geometry" />
        </mxCell>
        <mxCell id="W9X_AGISyNTUNxRQ-_Xt-183" value="series" style="rounded=0;whiteSpace=wrap;html=1;fillColor=#fff2cc;strokeColor=#d6b656;" parent="1" vertex="1">
          <mxGeometry x="707.5" y="2140" width="90" height="40" as="geometry" />
        </mxCell>
        <mxCell id="W9X_AGISyNTUNxRQ-_Xt-184" value="invoice_serie(last)+1" style="rounded=0;whiteSpace=wrap;html=1;fillColor=#fff2cc;strokeColor=#d6b656;" parent="1" vertex="1">
          <mxGeometry x="690" y="2230" width="125" height="40" as="geometry" />
        </mxCell>
        <mxCell id="W9X_AGISyNTUNxRQ-_Xt-185" style="edgeStyle=orthogonalEdgeStyle;rounded=0;orthogonalLoop=1;jettySize=auto;html=1;exitX=0.5;exitY=0;exitDx=0;exitDy=0;fillColor=#dae8fc;strokeColor=#6c8ebf;" parent="1" source="W9X_AGISyNTUNxRQ-_Xt-186" target="W9X_AGISyNTUNxRQ-_Xt-188" edge="1">
          <mxGeometry relative="1" as="geometry" />
        </mxCell>
        <mxCell id="W9X_AGISyNTUNxRQ-_Xt-186" value="&lt;div&gt;emission_date&lt;/div&gt;" style="rounded=0;whiteSpace=wrap;html=1;fillColor=#dae8fc;strokeColor=#6c8ebf;" parent="1" vertex="1">
          <mxGeometry x="707.5" y="1870" width="90" height="40" as="geometry" />
        </mxCell>
        <mxCell id="W9X_AGISyNTUNxRQ-_Xt-187" style="edgeStyle=orthogonalEdgeStyle;rounded=0;orthogonalLoop=1;jettySize=auto;html=1;exitX=0.5;exitY=0;exitDx=0;exitDy=0;fillColor=#dae8fc;strokeColor=#6c8ebf;" parent="1" source="W9X_AGISyNTUNxRQ-_Xt-188" target="W9X_AGISyNTUNxRQ-_Xt-189" edge="1">
          <mxGeometry relative="1" as="geometry" />
        </mxCell>
        <mxCell id="W9X_AGISyNTUNxRQ-_Xt-188" value="&lt;div&gt;emission_date&lt;/div&gt;" style="rounded=0;whiteSpace=wrap;html=1;fillColor=#dae8fc;strokeColor=#6c8ebf;" parent="1" vertex="1">
          <mxGeometry x="707.5" y="1780" width="90" height="40" as="geometry" />
        </mxCell>
        <mxCell id="W9X_AGISyNTUNxRQ-_Xt-189" value="&lt;div&gt;emission_date&lt;/div&gt;" style="rounded=0;whiteSpace=wrap;html=1;fillColor=#dae8fc;strokeColor=#6c8ebf;" parent="1" vertex="1">
          <mxGeometry x="707.5" y="1720" width="90" height="40" as="geometry" />
        </mxCell>
        <mxCell id="W9X_AGISyNTUNxRQ-_Xt-190" value="Shop_fiscal_data" style="rounded=0;whiteSpace=wrap;html=1;fillColor=#f8cecc;strokeColor=#b85450;" parent="1" vertex="1">
          <mxGeometry x="871.75" y="2160" width="132.5" height="40" as="geometry" />
        </mxCell>
        <mxCell id="W9X_AGISyNTUNxRQ-_Xt-204" value="" style="edgeStyle=orthogonalEdgeStyle;rounded=0;orthogonalLoop=1;jettySize=auto;html=1;exitX=0.5;exitY=0;exitDx=0;exitDy=0;entryX=0.501;entryY=1.01;entryDx=0;entryDy=0;entryPerimeter=0;endArrow=none;fillColor=#d5e8d4;strokeColor=#82b366;" parent="1" edge="1">
          <mxGeometry relative="1" as="geometry">
            <mxPoint x="305" y="1890" as="sourcePoint" />
            <mxPoint x="305.03999999999996" y="1890.3000000000002" as="targetPoint" />
          </mxGeometry>
        </mxCell>
        <mxCell id="W9X_AGISyNTUNxRQ-_Xt-222" value="invoice_series" style="swimlane;fontStyle=0;childLayout=stackLayout;horizontal=1;startSize=30;horizontalStack=0;resizeParent=1;resizeParentMax=0;resizeLast=0;collapsible=1;marginBottom=0;whiteSpace=wrap;html=1;fillColor=#fff2cc;strokeColor=#d6b656;movable=1;resizable=1;rotatable=1;deletable=1;editable=1;connectable=1;" parent="1" vertex="1">
          <mxGeometry x="541" y="152" width="137.5" height="60" as="geometry" />
        </mxCell>
        <mxCell id="W9X_AGISyNTUNxRQ-_Xt-223" value="ref" style="text;strokeColor=#d6b656;fillColor=#fff2cc;align=left;verticalAlign=middle;spacingLeft=4;spacingRight=4;overflow=hidden;points=[[0,0.5],[1,0.5]];portConstraint=eastwest;rotatable=1;whiteSpace=wrap;html=1;movable=1;resizable=1;deletable=1;editable=1;connectable=1;" parent="W9X_AGISyNTUNxRQ-_Xt-222" vertex="1">
          <mxGeometry y="30" width="137.5" height="30" as="geometry" />
        </mxCell>
      </root>
    </mxGraphModel>
  </diagram>
  <diagram name="Invoice Types" id="HIGW5G80Rm4j-eyDMtY0">
    <mxGraphModel dx="2390" dy="500" grid="1" gridSize="10" guides="0" tooltips="1" connect="1" arrows="1" fold="1" page="1" pageScale="1" pageWidth="1169" pageHeight="827" math="0" shadow="0">
      <root>
        <mxCell id="BUKVPstVjmUalPxrSvRM-0" />
        <mxCell id="BUKVPstVjmUalPxrSvRM-1" parent="BUKVPstVjmUalPxrSvRM-0" />
        <mxCell id="BUKVPstVjmUalPxrSvRM-48" style="edgeStyle=orthogonalEdgeStyle;rounded=0;orthogonalLoop=1;jettySize=auto;html=1;exitX=0;exitY=0.5;exitDx=0;exitDy=0;entryX=0.999;entryY=0.133;entryDx=0;entryDy=0;strokeColor=#EA6B66;movable=1;resizable=1;rotatable=1;deletable=1;editable=1;connectable=1;entryPerimeter=0;" edge="1" parent="BUKVPstVjmUalPxrSvRM-1" source="BUKVPstVjmUalPxrSvRM-52" target="BUKVPstVjmUalPxrSvRM-73">
          <mxGeometry relative="1" as="geometry">
            <mxPoint x="490" y="275" as="targetPoint" />
          </mxGeometry>
        </mxCell>
        <mxCell id="BUKVPstVjmUalPxrSvRM-51" value="sales_invoice_line" style="swimlane;fontStyle=0;childLayout=stackLayout;horizontal=1;startSize=30;horizontalStack=0;resizeParent=1;resizeParentMax=0;resizeLast=0;collapsible=1;marginBottom=0;whiteSpace=wrap;html=1;fillColor=#ffe6cc;strokeColor=#d79b00;movable=1;resizable=1;rotatable=1;deletable=1;editable=1;connectable=1;" vertex="1" parent="BUKVPstVjmUalPxrSvRM-1">
          <mxGeometry x="900" y="1110" width="137.5" height="180" as="geometry" />
        </mxCell>
        <mxCell id="BUKVPstVjmUalPxrSvRM-52" value="sales_invoice_id" style="text;strokeColor=#d79b00;fillColor=#ffe6cc;align=left;verticalAlign=middle;spacingLeft=4;spacingRight=4;overflow=hidden;points=[[0,0.5],[1,0.5]];portConstraint=eastwest;rotatable=1;whiteSpace=wrap;html=1;movable=1;resizable=1;deletable=1;editable=1;connectable=1;" vertex="1" parent="BUKVPstVjmUalPxrSvRM-51">
          <mxGeometry y="30" width="137.5" height="30" as="geometry" />
        </mxCell>
        <mxCell id="BUKVPstVjmUalPxrSvRM-53" value="shop_variation_id" style="text;strokeColor=#d79b00;fillColor=#ffe6cc;align=left;verticalAlign=middle;spacingLeft=4;spacingRight=4;overflow=hidden;points=[[0,0.5],[1,0.5]];portConstraint=eastwest;rotatable=1;whiteSpace=wrap;html=1;movable=1;resizable=1;deletable=1;editable=1;connectable=1;" vertex="1" parent="BUKVPstVjmUalPxrSvRM-51">
          <mxGeometry y="60" width="137.5" height="30" as="geometry" />
        </mxCell>
        <mxCell id="BUKVPstVjmUalPxrSvRM-54" value="sales_dicount_code_id" style="text;strokeColor=#d79b00;fillColor=#ffe6cc;align=left;verticalAlign=middle;spacingLeft=4;spacingRight=4;overflow=hidden;points=[[0,0.5],[1,0.5]];portConstraint=eastwest;rotatable=1;whiteSpace=wrap;html=1;movable=1;resizable=1;deletable=1;editable=1;connectable=1;" vertex="1" parent="BUKVPstVjmUalPxrSvRM-51">
          <mxGeometry y="90" width="137.5" height="30" as="geometry" />
        </mxCell>
        <mxCell id="BUKVPstVjmUalPxrSvRM-55" value="quantity" style="text;strokeColor=#d79b00;fillColor=#ffe6cc;align=left;verticalAlign=middle;spacingLeft=4;spacingRight=4;overflow=hidden;points=[[0,0.5],[1,0.5]];portConstraint=eastwest;rotatable=1;whiteSpace=wrap;html=1;movable=1;resizable=1;deletable=1;editable=1;connectable=1;" vertex="1" parent="BUKVPstVjmUalPxrSvRM-51">
          <mxGeometry y="120" width="137.5" height="30" as="geometry" />
        </mxCell>
        <mxCell id="BUKVPstVjmUalPxrSvRM-56" value="total" style="text;strokeColor=#d79b00;fillColor=#ffe6cc;align=left;verticalAlign=middle;spacingLeft=4;spacingRight=4;overflow=hidden;points=[[0,0.5],[1,0.5]];portConstraint=eastwest;rotatable=1;whiteSpace=wrap;html=1;movable=1;resizable=1;deletable=1;editable=1;connectable=1;" vertex="1" parent="BUKVPstVjmUalPxrSvRM-51">
          <mxGeometry y="150" width="137.5" height="30" as="geometry" />
        </mxCell>
        <mxCell id="BUKVPstVjmUalPxrSvRM-72" value="" style="edgeStyle=orthogonalEdgeStyle;rounded=0;orthogonalLoop=1;jettySize=auto;html=1;strokeColor=#d6b656;fillColor=#fff2cc;entryX=1;entryY=0.25;entryDx=0;entryDy=0;movable=1;resizable=1;rotatable=1;deletable=1;editable=1;connectable=1;exitX=0.001;exitY=0.12;exitDx=0;exitDy=0;exitPerimeter=0;" edge="1" parent="BUKVPstVjmUalPxrSvRM-1" source="GBLFah_KVzc9IFQlPQ7f-0" target="BUKVPstVjmUalPxrSvRM-141">
          <mxGeometry relative="1" as="geometry">
            <mxPoint x="610" y="190" as="targetPoint" />
          </mxGeometry>
        </mxCell>
        <mxCell id="BUKVPstVjmUalPxrSvRM-73" value="sales_invoice" style="swimlane;fontStyle=0;childLayout=stackLayout;horizontal=1;startSize=30;horizontalStack=0;resizeParent=1;resizeParentMax=0;resizeLast=0;collapsible=1;marginBottom=0;whiteSpace=wrap;html=1;fillColor=#EA6B66;strokeColor=#B3524E;movable=1;resizable=1;rotatable=1;deletable=1;editable=1;connectable=1;" vertex="1" parent="BUKVPstVjmUalPxrSvRM-1">
          <mxGeometry x="650" y="1110" width="137.5" height="150" as="geometry" />
        </mxCell>
        <mxCell id="BUKVPstVjmUalPxrSvRM-74" value="invoice_type_id" style="text;strokeColor=#B3524E;fillColor=#EA6B66;align=left;verticalAlign=middle;spacingLeft=4;spacingRight=4;overflow=hidden;points=[[0,0.5],[1,0.5]];portConstraint=eastwest;rotatable=1;whiteSpace=wrap;html=1;movable=1;resizable=1;deletable=1;editable=1;connectable=1;" vertex="1" parent="BUKVPstVjmUalPxrSvRM-73">
          <mxGeometry y="30" width="137.5" height="30" as="geometry" />
        </mxCell>
        <mxCell id="BUKVPstVjmUalPxrSvRM-75" value="timestamps" style="text;strokeColor=#B3524E;fillColor=#EA6B66;align=left;verticalAlign=middle;spacingLeft=4;spacingRight=4;overflow=hidden;points=[[0,0.5],[1,0.5]];portConstraint=eastwest;rotatable=1;whiteSpace=wrap;html=1;movable=1;resizable=1;deletable=1;editable=1;connectable=1;" vertex="1" parent="BUKVPstVjmUalPxrSvRM-73">
          <mxGeometry y="60" width="137.5" height="30" as="geometry" />
        </mxCell>
        <mxCell id="BUKVPstVjmUalPxrSvRM-76" value="customer_account_id" style="text;strokeColor=#B3524E;fillColor=#EA6B66;align=left;verticalAlign=middle;spacingLeft=4;spacingRight=4;overflow=hidden;points=[[0,0.5],[1,0.5]];portConstraint=eastwest;rotatable=1;whiteSpace=wrap;html=1;movable=1;resizable=1;deletable=1;editable=1;connectable=1;" vertex="1" parent="BUKVPstVjmUalPxrSvRM-73">
          <mxGeometry y="90" width="137.5" height="30" as="geometry" />
        </mxCell>
        <mxCell id="BUKVPstVjmUalPxrSvRM-77" value="sales_dicount_code_id" style="text;strokeColor=#B3524E;fillColor=#EA6B66;align=left;verticalAlign=middle;spacingLeft=4;spacingRight=4;overflow=hidden;points=[[0,0.5],[1,0.5]];portConstraint=eastwest;rotatable=1;whiteSpace=wrap;html=1;movable=1;resizable=1;deletable=1;editable=1;connectable=1;" vertex="1" parent="BUKVPstVjmUalPxrSvRM-73">
          <mxGeometry y="120" width="137.5" height="30" as="geometry" />
        </mxCell>
        <mxCell id="BUKVPstVjmUalPxrSvRM-141" value="invoice_series" style="swimlane;fontStyle=0;childLayout=stackLayout;horizontal=1;startSize=30;horizontalStack=0;resizeParent=1;resizeParentMax=0;resizeLast=0;collapsible=1;marginBottom=0;whiteSpace=wrap;html=1;fillColor=#fff2cc;strokeColor=#d6b656;movable=1;resizable=1;rotatable=1;deletable=1;editable=1;connectable=1;" vertex="1" parent="BUKVPstVjmUalPxrSvRM-1">
          <mxGeometry x="130" y="1170" width="137.5" height="60" as="geometry" />
        </mxCell>
        <mxCell id="BUKVPstVjmUalPxrSvRM-142" value="ref" style="text;strokeColor=#d6b656;fillColor=#fff2cc;align=left;verticalAlign=middle;spacingLeft=4;spacingRight=4;overflow=hidden;points=[[0,0.5],[1,0.5]];portConstraint=eastwest;rotatable=1;whiteSpace=wrap;html=1;movable=1;resizable=1;deletable=1;editable=1;connectable=1;" vertex="1" parent="BUKVPstVjmUalPxrSvRM-141">
          <mxGeometry y="30" width="137.5" height="30" as="geometry" />
        </mxCell>
        <mxCell id="GBLFah_KVzc9IFQlPQ7f-0" value="invoice_types" style="swimlane;fontStyle=0;childLayout=stackLayout;horizontal=1;startSize=30;horizontalStack=0;resizeParent=1;resizeParentMax=0;resizeLast=0;collapsible=1;marginBottom=0;whiteSpace=wrap;html=1;fillColor=#A408FF;strokeColor=#853585;movable=1;resizable=1;rotatable=1;deletable=1;editable=1;connectable=1;fontColor=#ffffff;" vertex="1" parent="BUKVPstVjmUalPxrSvRM-1">
          <mxGeometry x="350" y="1110" width="137.5" height="150" as="geometry" />
        </mxCell>
        <mxCell id="GBLFah_KVzc9IFQlPQ7f-1" value="invoice_series_id" style="text;strokeColor=#853585;fillColor=#A408FF;align=left;verticalAlign=middle;spacingLeft=4;spacingRight=4;overflow=hidden;points=[[0,0.5],[1,0.5]];portConstraint=eastwest;rotatable=1;whiteSpace=wrap;html=1;movable=1;resizable=1;deletable=1;editable=1;connectable=1;fontColor=#ffffff;" vertex="1" parent="GBLFah_KVzc9IFQlPQ7f-0">
          <mxGeometry y="30" width="137.5" height="30" as="geometry" />
        </mxCell>
        <mxCell id="GBLFah_KVzc9IFQlPQ7f-2" value="timestamps" style="text;strokeColor=#853585;fillColor=#A408FF;align=left;verticalAlign=middle;spacingLeft=4;spacingRight=4;overflow=hidden;points=[[0,0.5],[1,0.5]];portConstraint=eastwest;rotatable=1;whiteSpace=wrap;html=1;movable=1;resizable=1;deletable=1;editable=1;connectable=1;fontColor=#ffffff;" vertex="1" parent="GBLFah_KVzc9IFQlPQ7f-0">
          <mxGeometry y="60" width="137.5" height="30" as="geometry" />
        </mxCell>
        <mxCell id="GBLFah_KVzc9IFQlPQ7f-3" value="customer_account_id" style="text;strokeColor=#853585;fillColor=#A408FF;align=left;verticalAlign=middle;spacingLeft=4;spacingRight=4;overflow=hidden;points=[[0,0.5],[1,0.5]];portConstraint=eastwest;rotatable=1;whiteSpace=wrap;html=1;movable=1;resizable=1;deletable=1;editable=1;connectable=1;fontColor=#ffffff;" vertex="1" parent="GBLFah_KVzc9IFQlPQ7f-0">
          <mxGeometry y="90" width="137.5" height="30" as="geometry" />
        </mxCell>
        <mxCell id="GBLFah_KVzc9IFQlPQ7f-4" value="sales_dicount_code_id" style="text;strokeColor=#853585;fillColor=#A408FF;align=left;verticalAlign=middle;spacingLeft=4;spacingRight=4;overflow=hidden;points=[[0,0.5],[1,0.5]];portConstraint=eastwest;rotatable=1;whiteSpace=wrap;html=1;movable=1;resizable=1;deletable=1;editable=1;connectable=1;fontColor=#ffffff;" vertex="1" parent="GBLFah_KVzc9IFQlPQ7f-0">
          <mxGeometry y="120" width="137.5" height="30" as="geometry" />
        </mxCell>
        <mxCell id="GBLFah_KVzc9IFQlPQ7f-5" style="edgeStyle=orthogonalEdgeStyle;rounded=0;orthogonalLoop=1;jettySize=auto;html=1;exitX=0;exitY=0.5;exitDx=0;exitDy=0;entryX=0.999;entryY=0.133;entryDx=0;entryDy=0;strokeColor=#EA6B66;movable=1;resizable=1;rotatable=1;deletable=1;editable=1;connectable=1;entryPerimeter=0;" edge="1" source="GBLFah_KVzc9IFQlPQ7f-7" target="GBLFah_KVzc9IFQlPQ7f-12" parent="BUKVPstVjmUalPxrSvRM-1">
          <mxGeometry relative="1" as="geometry">
            <mxPoint x="500" y="285" as="targetPoint" />
          </mxGeometry>
        </mxCell>
        <mxCell id="GBLFah_KVzc9IFQlPQ7f-6" value="sales_invoice_line" style="swimlane;fontStyle=0;childLayout=stackLayout;horizontal=1;startSize=30;horizontalStack=0;resizeParent=1;resizeParentMax=0;resizeLast=0;collapsible=1;marginBottom=0;whiteSpace=wrap;html=1;fillColor=#ffe6cc;strokeColor=#d79b00;movable=1;resizable=1;rotatable=1;deletable=1;editable=1;connectable=1;" vertex="1" parent="BUKVPstVjmUalPxrSvRM-1">
          <mxGeometry x="910" y="900" width="137.5" height="180" as="geometry" />
        </mxCell>
        <mxCell id="GBLFah_KVzc9IFQlPQ7f-7" value="sales_invoice_id" style="text;strokeColor=#d79b00;fillColor=#ffe6cc;align=left;verticalAlign=middle;spacingLeft=4;spacingRight=4;overflow=hidden;points=[[0,0.5],[1,0.5]];portConstraint=eastwest;rotatable=1;whiteSpace=wrap;html=1;movable=1;resizable=1;deletable=1;editable=1;connectable=1;" vertex="1" parent="GBLFah_KVzc9IFQlPQ7f-6">
          <mxGeometry y="30" width="137.5" height="30" as="geometry" />
        </mxCell>
        <mxCell id="GBLFah_KVzc9IFQlPQ7f-8" value="shop_variation_id" style="text;strokeColor=#d79b00;fillColor=#ffe6cc;align=left;verticalAlign=middle;spacingLeft=4;spacingRight=4;overflow=hidden;points=[[0,0.5],[1,0.5]];portConstraint=eastwest;rotatable=1;whiteSpace=wrap;html=1;movable=1;resizable=1;deletable=1;editable=1;connectable=1;" vertex="1" parent="GBLFah_KVzc9IFQlPQ7f-6">
          <mxGeometry y="60" width="137.5" height="30" as="geometry" />
        </mxCell>
        <mxCell id="GBLFah_KVzc9IFQlPQ7f-9" value="sales_dicount_code_id" style="text;strokeColor=#d79b00;fillColor=#ffe6cc;align=left;verticalAlign=middle;spacingLeft=4;spacingRight=4;overflow=hidden;points=[[0,0.5],[1,0.5]];portConstraint=eastwest;rotatable=1;whiteSpace=wrap;html=1;movable=1;resizable=1;deletable=1;editable=1;connectable=1;" vertex="1" parent="GBLFah_KVzc9IFQlPQ7f-6">
          <mxGeometry y="90" width="137.5" height="30" as="geometry" />
        </mxCell>
        <mxCell id="GBLFah_KVzc9IFQlPQ7f-10" value="quantity" style="text;strokeColor=#d79b00;fillColor=#ffe6cc;align=left;verticalAlign=middle;spacingLeft=4;spacingRight=4;overflow=hidden;points=[[0,0.5],[1,0.5]];portConstraint=eastwest;rotatable=1;whiteSpace=wrap;html=1;movable=1;resizable=1;deletable=1;editable=1;connectable=1;" vertex="1" parent="GBLFah_KVzc9IFQlPQ7f-6">
          <mxGeometry y="120" width="137.5" height="30" as="geometry" />
        </mxCell>
        <mxCell id="GBLFah_KVzc9IFQlPQ7f-11" value="total" style="text;strokeColor=#d79b00;fillColor=#ffe6cc;align=left;verticalAlign=middle;spacingLeft=4;spacingRight=4;overflow=hidden;points=[[0,0.5],[1,0.5]];portConstraint=eastwest;rotatable=1;whiteSpace=wrap;html=1;movable=1;resizable=1;deletable=1;editable=1;connectable=1;" vertex="1" parent="GBLFah_KVzc9IFQlPQ7f-6">
          <mxGeometry y="150" width="137.5" height="30" as="geometry" />
        </mxCell>
        <mxCell id="GBLFah_KVzc9IFQlPQ7f-12" value="sales_invoice" style="swimlane;fontStyle=0;childLayout=stackLayout;horizontal=1;startSize=30;horizontalStack=0;resizeParent=1;resizeParentMax=0;resizeLast=0;collapsible=1;marginBottom=0;whiteSpace=wrap;html=1;fillColor=#EA6B66;strokeColor=#B3524E;movable=1;resizable=1;rotatable=1;deletable=1;editable=1;connectable=1;" vertex="1" parent="BUKVPstVjmUalPxrSvRM-1">
          <mxGeometry x="650" y="920" width="137.5" height="150" as="geometry" />
        </mxCell>
        <mxCell id="GBLFah_KVzc9IFQlPQ7f-13" value="invoice_type_id" style="text;strokeColor=#B3524E;fillColor=#EA6B66;align=left;verticalAlign=middle;spacingLeft=4;spacingRight=4;overflow=hidden;points=[[0,0.5],[1,0.5]];portConstraint=eastwest;rotatable=1;whiteSpace=wrap;html=1;movable=1;resizable=1;deletable=1;editable=1;connectable=1;" vertex="1" parent="GBLFah_KVzc9IFQlPQ7f-12">
          <mxGeometry y="30" width="137.5" height="30" as="geometry" />
        </mxCell>
        <mxCell id="GBLFah_KVzc9IFQlPQ7f-14" value="timestamps" style="text;strokeColor=#B3524E;fillColor=#EA6B66;align=left;verticalAlign=middle;spacingLeft=4;spacingRight=4;overflow=hidden;points=[[0,0.5],[1,0.5]];portConstraint=eastwest;rotatable=1;whiteSpace=wrap;html=1;movable=1;resizable=1;deletable=1;editable=1;connectable=1;" vertex="1" parent="GBLFah_KVzc9IFQlPQ7f-12">
          <mxGeometry y="60" width="137.5" height="30" as="geometry" />
        </mxCell>
        <mxCell id="GBLFah_KVzc9IFQlPQ7f-15" value="customer_account_id" style="text;strokeColor=#B3524E;fillColor=#EA6B66;align=left;verticalAlign=middle;spacingLeft=4;spacingRight=4;overflow=hidden;points=[[0,0.5],[1,0.5]];portConstraint=eastwest;rotatable=1;whiteSpace=wrap;html=1;movable=1;resizable=1;deletable=1;editable=1;connectable=1;" vertex="1" parent="GBLFah_KVzc9IFQlPQ7f-12">
          <mxGeometry y="90" width="137.5" height="30" as="geometry" />
        </mxCell>
        <mxCell id="GBLFah_KVzc9IFQlPQ7f-16" value="sales_dicount_code_id" style="text;strokeColor=#B3524E;fillColor=#EA6B66;align=left;verticalAlign=middle;spacingLeft=4;spacingRight=4;overflow=hidden;points=[[0,0.5],[1,0.5]];portConstraint=eastwest;rotatable=1;whiteSpace=wrap;html=1;movable=1;resizable=1;deletable=1;editable=1;connectable=1;" vertex="1" parent="GBLFah_KVzc9IFQlPQ7f-12">
          <mxGeometry y="120" width="137.5" height="30" as="geometry" />
        </mxCell>
        <mxCell id="GBLFah_KVzc9IFQlPQ7f-17" style="edgeStyle=orthogonalEdgeStyle;rounded=0;orthogonalLoop=1;jettySize=auto;html=1;exitX=0;exitY=0.5;exitDx=0;exitDy=0;entryX=0.999;entryY=0.133;entryDx=0;entryDy=0;strokeColor=#EA6B66;movable=1;resizable=1;rotatable=1;deletable=1;editable=1;connectable=1;entryPerimeter=0;" edge="1" source="GBLFah_KVzc9IFQlPQ7f-19" target="GBLFah_KVzc9IFQlPQ7f-24" parent="BUKVPstVjmUalPxrSvRM-1">
          <mxGeometry relative="1" as="geometry">
            <mxPoint x="490" y="485" as="targetPoint" />
          </mxGeometry>
        </mxCell>
        <mxCell id="GBLFah_KVzc9IFQlPQ7f-18" value="sales_invoice_line" style="swimlane;fontStyle=0;childLayout=stackLayout;horizontal=1;startSize=30;horizontalStack=0;resizeParent=1;resizeParentMax=0;resizeLast=0;collapsible=1;marginBottom=0;whiteSpace=wrap;html=1;fillColor=#ffe6cc;strokeColor=#d79b00;movable=1;resizable=1;rotatable=1;deletable=1;editable=1;connectable=1;" vertex="1" parent="BUKVPstVjmUalPxrSvRM-1">
          <mxGeometry x="900" y="1320" width="137.5" height="180" as="geometry" />
        </mxCell>
        <mxCell id="GBLFah_KVzc9IFQlPQ7f-19" value="sales_invoice_id" style="text;strokeColor=#d79b00;fillColor=#ffe6cc;align=left;verticalAlign=middle;spacingLeft=4;spacingRight=4;overflow=hidden;points=[[0,0.5],[1,0.5]];portConstraint=eastwest;rotatable=1;whiteSpace=wrap;html=1;movable=1;resizable=1;deletable=1;editable=1;connectable=1;" vertex="1" parent="GBLFah_KVzc9IFQlPQ7f-18">
          <mxGeometry y="30" width="137.5" height="30" as="geometry" />
        </mxCell>
        <mxCell id="GBLFah_KVzc9IFQlPQ7f-20" value="shop_variation_id" style="text;strokeColor=#d79b00;fillColor=#ffe6cc;align=left;verticalAlign=middle;spacingLeft=4;spacingRight=4;overflow=hidden;points=[[0,0.5],[1,0.5]];portConstraint=eastwest;rotatable=1;whiteSpace=wrap;html=1;movable=1;resizable=1;deletable=1;editable=1;connectable=1;" vertex="1" parent="GBLFah_KVzc9IFQlPQ7f-18">
          <mxGeometry y="60" width="137.5" height="30" as="geometry" />
        </mxCell>
        <mxCell id="GBLFah_KVzc9IFQlPQ7f-21" value="sales_dicount_code_id" style="text;strokeColor=#d79b00;fillColor=#ffe6cc;align=left;verticalAlign=middle;spacingLeft=4;spacingRight=4;overflow=hidden;points=[[0,0.5],[1,0.5]];portConstraint=eastwest;rotatable=1;whiteSpace=wrap;html=1;movable=1;resizable=1;deletable=1;editable=1;connectable=1;" vertex="1" parent="GBLFah_KVzc9IFQlPQ7f-18">
          <mxGeometry y="90" width="137.5" height="30" as="geometry" />
        </mxCell>
        <mxCell id="GBLFah_KVzc9IFQlPQ7f-22" value="quantity" style="text;strokeColor=#d79b00;fillColor=#ffe6cc;align=left;verticalAlign=middle;spacingLeft=4;spacingRight=4;overflow=hidden;points=[[0,0.5],[1,0.5]];portConstraint=eastwest;rotatable=1;whiteSpace=wrap;html=1;movable=1;resizable=1;deletable=1;editable=1;connectable=1;" vertex="1" parent="GBLFah_KVzc9IFQlPQ7f-18">
          <mxGeometry y="120" width="137.5" height="30" as="geometry" />
        </mxCell>
        <mxCell id="GBLFah_KVzc9IFQlPQ7f-23" value="total" style="text;strokeColor=#d79b00;fillColor=#ffe6cc;align=left;verticalAlign=middle;spacingLeft=4;spacingRight=4;overflow=hidden;points=[[0,0.5],[1,0.5]];portConstraint=eastwest;rotatable=1;whiteSpace=wrap;html=1;movable=1;resizable=1;deletable=1;editable=1;connectable=1;" vertex="1" parent="GBLFah_KVzc9IFQlPQ7f-18">
          <mxGeometry y="150" width="137.5" height="30" as="geometry" />
        </mxCell>
        <mxCell id="GBLFah_KVzc9IFQlPQ7f-24" value="sales_invoice" style="swimlane;fontStyle=0;childLayout=stackLayout;horizontal=1;startSize=30;horizontalStack=0;resizeParent=1;resizeParentMax=0;resizeLast=0;collapsible=1;marginBottom=0;whiteSpace=wrap;html=1;fillColor=#EA6B66;strokeColor=#B3524E;movable=1;resizable=1;rotatable=1;deletable=1;editable=1;connectable=1;" vertex="1" parent="BUKVPstVjmUalPxrSvRM-1">
          <mxGeometry x="650" y="1320" width="137.5" height="150" as="geometry" />
        </mxCell>
        <mxCell id="GBLFah_KVzc9IFQlPQ7f-25" value="invoice_type_id" style="text;strokeColor=#B3524E;fillColor=#EA6B66;align=left;verticalAlign=middle;spacingLeft=4;spacingRight=4;overflow=hidden;points=[[0,0.5],[1,0.5]];portConstraint=eastwest;rotatable=1;whiteSpace=wrap;html=1;movable=1;resizable=1;deletable=1;editable=1;connectable=1;" vertex="1" parent="GBLFah_KVzc9IFQlPQ7f-24">
          <mxGeometry y="30" width="137.5" height="30" as="geometry" />
        </mxCell>
        <mxCell id="GBLFah_KVzc9IFQlPQ7f-26" value="timestamps" style="text;strokeColor=#B3524E;fillColor=#EA6B66;align=left;verticalAlign=middle;spacingLeft=4;spacingRight=4;overflow=hidden;points=[[0,0.5],[1,0.5]];portConstraint=eastwest;rotatable=1;whiteSpace=wrap;html=1;movable=1;resizable=1;deletable=1;editable=1;connectable=1;" vertex="1" parent="GBLFah_KVzc9IFQlPQ7f-24">
          <mxGeometry y="60" width="137.5" height="30" as="geometry" />
        </mxCell>
        <mxCell id="GBLFah_KVzc9IFQlPQ7f-27" value="customer_account_id" style="text;strokeColor=#B3524E;fillColor=#EA6B66;align=left;verticalAlign=middle;spacingLeft=4;spacingRight=4;overflow=hidden;points=[[0,0.5],[1,0.5]];portConstraint=eastwest;rotatable=1;whiteSpace=wrap;html=1;movable=1;resizable=1;deletable=1;editable=1;connectable=1;" vertex="1" parent="GBLFah_KVzc9IFQlPQ7f-24">
          <mxGeometry y="90" width="137.5" height="30" as="geometry" />
        </mxCell>
        <mxCell id="GBLFah_KVzc9IFQlPQ7f-28" value="sales_dicount_code_id" style="text;strokeColor=#B3524E;fillColor=#EA6B66;align=left;verticalAlign=middle;spacingLeft=4;spacingRight=4;overflow=hidden;points=[[0,0.5],[1,0.5]];portConstraint=eastwest;rotatable=1;whiteSpace=wrap;html=1;movable=1;resizable=1;deletable=1;editable=1;connectable=1;" vertex="1" parent="GBLFah_KVzc9IFQlPQ7f-24">
          <mxGeometry y="120" width="137.5" height="30" as="geometry" />
        </mxCell>
      </root>
    </mxGraphModel>
  </diagram>
</mxfile>
